<svg width="1075" height="446" viewBox="0 0 1075 446" fill="none" xmlns="http://www.w3.org/2000/svg">
<path d="M377.85 66.4404L370.81 106.51H366.8L372.7 72.7904L354.84 95.9704H354.27L344.2 72.1604L338.19 106.51H334.18L341.22 66.4404H345.91L355.41 89.0004L372.82 66.4404H377.86H377.85Z" fill="white"/>
<path d="M409.16 77.8904H412.94L407.9 106.51H404.12L404.98 101.64C401.89 105.34 397.75 107.19 392.56 107.19C388.55 107.19 385.33 105.64 382.89 102.55C380.45 99.4604 379.59 95.8104 380.31 91.6204C381.11 87.0404 383.09 83.4904 386.24 80.9704C389.39 78.4504 392.87 77.1904 396.69 77.1904C399.17 77.1904 401.44 77.7704 403.5 78.9404C405.56 80.1004 407.09 81.7704 408.08 83.9504L409.17 77.8804L409.16 77.8904ZM393.48 103.54C396.61 103.54 399.41 102.54 401.89 100.54C404.37 98.5404 405.92 95.9904 406.53 92.9004L406.64 92.2104C407.17 88.7004 406.46 85.9304 404.49 83.9104C402.52 81.8904 400.01 80.8704 396.96 80.8704C393.91 80.8704 391.24 81.8404 388.74 83.7904C386.24 85.7404 384.68 88.4504 384.07 91.9204C383.54 95.1304 384.17 97.8704 385.96 100.14C387.75 102.41 390.25 103.55 393.46 103.55L393.48 103.54Z" fill="white"/>
<path d="M441.79 77.8904H445L439.96 106.51H436.18L439.96 84.7604L419.12 106.51H415.91L420.95 77.8904H424.73L420.89 99.6404L441.79 77.8904ZM426.34 73.3104L426.91 69.9904H441.79L441.22 73.3104H426.33H426.34Z" fill="white"/>
<path d="M461.26 107.2C457.1 107.2 453.81 105.66 451.38 102.59C448.96 99.5204 448.13 95.8404 448.89 91.5704C449.61 87.3704 451.62 83.9304 454.9 81.2404C458.18 78.5504 461.96 77.2004 466.24 77.2004C469.02 77.2004 471.47 77.8704 473.57 79.2004C475.67 80.5304 477.12 82.3504 477.92 84.6404L474.66 86.3004C474.05 84.6204 472.98 83.3004 471.45 82.3204C469.92 81.3404 468.07 80.8604 465.9 80.8604C462.66 80.8604 459.78 81.9204 457.29 84.0404C454.79 86.1604 453.25 88.8004 452.68 91.9704C452.15 95.2104 452.74 97.9504 454.46 100.18C456.18 102.41 458.66 103.53 461.9 103.53C464.08 103.53 466.09 103.02 467.94 101.99C469.79 100.96 471.27 99.5704 472.38 97.8104L475.42 99.8104C473.97 102.14 472 103.95 469.52 105.25C467.04 106.55 464.29 107.2 461.28 107.2H461.26Z" fill="white"/>
<path d="M504.71 77.8904L504.08 81.5504H493.95L489.54 106.51H485.76L490.17 81.5504H480.04L480.67 77.8904H504.71Z" fill="white"/>
<path d="M521.03 77.2104C525.34 77.2104 528.64 78.7004 530.91 81.6804C533.18 84.6604 533.89 88.2104 533.06 92.3304C532.95 93.0204 532.79 93.6104 532.6 94.1004H507.58C507.47 97.0004 508.28 99.3004 510.01 101C511.75 102.7 514.12 103.55 517.14 103.55C521.53 103.55 524.91 101.91 527.27 98.6304L530.25 100.58C528.88 102.68 526.94 104.31 524.44 105.48C521.94 106.64 519.33 107.23 516.62 107.23C512.19 107.23 508.8 105.74 506.43 102.76C504.06 99.7804 503.26 96.0804 504.03 91.6504C504.75 87.4504 506.73 84.0004 509.96 81.2904C513.18 78.5804 516.88 77.2304 521.04 77.2304L521.03 77.2104ZM508.15 90.4304H529.45C529.68 87.3004 528.99 84.9204 527.39 83.3004C525.79 81.6804 523.59 80.8704 520.81 80.8704C517.79 80.8704 515.15 81.7404 512.88 83.4804C510.61 85.2204 509.03 87.5404 508.16 90.4404L508.15 90.4304Z" fill="white"/>
<path d="M556.92 77.2104C560.93 77.2104 564.15 78.7604 566.59 81.8504C569.03 84.9404 569.89 88.5904 569.17 92.7804C568.37 97.3604 566.39 100.91 563.25 103.43C560.1 105.95 556.62 107.21 552.8 107.21C550.32 107.21 548.05 106.63 545.99 105.46C543.93 104.29 542.4 102.63 541.41 100.45L538.32 117.97H534.54L541.58 77.9004H545.36L544.5 82.7704C547.59 79.0704 551.73 77.2204 556.92 77.2204V77.2104ZM565.39 92.4904C565.93 89.2804 565.29 86.5504 563.5 84.2804C561.71 82.0104 559.21 80.8704 556 80.8704C552.79 80.8704 550.07 81.8704 547.61 83.8804C545.15 85.8804 543.59 88.4104 542.94 91.4704L542.83 92.3904C542.33 95.8604 543.06 98.5904 545.01 100.58C546.96 102.57 549.46 103.56 552.51 103.56C555.56 103.56 558.22 102.59 560.72 100.64C563.22 98.6904 564.78 95.9804 565.39 92.5104V92.4904Z" fill="white"/>
<path d="M576.44 90.6604L577.07 87.0004H597.68L597.05 90.6604H576.44Z" fill="white"/>
<path d="M626.19 77.8904L625.56 81.5504H611.02L606.61 106.51H602.83L607.87 77.8904H626.19Z" fill="white"/>
<path d="M645.83 77.2104C649.84 77.2104 653.06 78.7604 655.5 81.8504C657.94 84.9404 658.8 88.5904 658.08 92.7804C657.28 97.3604 655.3 100.91 652.16 103.43C649.01 105.95 645.53 107.21 641.71 107.21C639.23 107.21 636.96 106.63 634.9 105.46C632.84 104.29 631.31 102.63 630.32 100.45L627.23 117.97H623.45L630.49 77.9004H634.27L633.41 82.7704C636.5 79.0704 640.64 77.2204 645.83 77.2204V77.2104ZM654.3 92.4904C654.84 89.2804 654.2 86.5504 652.41 84.2804C650.62 82.0104 648.12 80.8704 644.91 80.8704C641.7 80.8704 638.98 81.8704 636.52 83.8804C634.06 85.8804 632.5 88.4104 631.85 91.4704L631.74 92.3904C631.24 95.8604 631.97 98.5904 633.92 100.58C635.87 102.57 638.37 103.56 641.42 103.56C644.47 103.56 647.13 102.59 649.63 100.64C652.13 98.6904 653.69 95.9804 654.3 92.5104V92.4904Z" fill="white"/>
<path d="M690.47 77.8904L672.72 109.15C671 112.16 669.02 114.44 666.77 115.96C664.52 117.49 662.13 118.15 659.61 117.96L660.24 114.41C663.41 114.75 666.29 112.77 668.88 108.46L670.08 106.46L662.41 77.8904H666.25L672.6 102.22L686.22 77.8904H690.47Z" fill="white"/>
<path d="M719.1 77.8904L714.06 106.51H710.28L714.69 81.5504H698.2L693.79 106.51H690.01L695.05 77.8904H719.1Z" fill="white"/>
<path d="M751.85 77.8904H755.63L750.59 106.51H746.81L747.67 101.64C744.58 105.34 740.44 107.19 735.25 107.19C731.24 107.19 728.02 105.64 725.58 102.55C723.14 99.4604 722.28 95.8104 723 91.6204C723.8 87.0404 725.78 83.4904 728.93 80.9704C732.08 78.4504 735.56 77.1904 739.38 77.1904C741.86 77.1904 744.13 77.7704 746.19 78.9404C748.25 80.1004 749.78 81.7704 750.77 83.9504L751.86 77.8804L751.85 77.8904ZM736.16 103.54C739.29 103.54 742.09 102.54 744.57 100.54C747.05 98.5404 748.6 95.9904 749.21 92.9004L749.32 92.2104C749.85 88.7004 749.14 85.9304 747.17 83.9104C745.2 81.8904 742.69 80.8704 739.64 80.8704C736.59 80.8704 733.92 81.8404 731.42 83.7904C728.92 85.7404 727.36 88.4504 726.75 91.9204C726.22 95.1304 726.85 97.8704 728.64 100.14C730.43 102.41 732.93 103.55 736.14 103.55L736.16 103.54Z" fill="white"/>
<path d="M263.71 196.94C264.74 203.79 261.23 212.56 253.18 223.26C245.12 233.96 234.5 244.55 221.32 255.04L213.12 271.27L179.58 341.62C180.81 339.84 182.41 337.32 184.39 334.03C186.37 330.74 187.79 328.57 188.66 327.5C190.16 325.69 191.07 325.55 191.4 327.09C191.7 328.45 191.45 329.93 190.67 331.55C189.52 333.87 187.26 339.26 183.86 347.71C180.46 356.16 177.37 363.54 174.58 369.85C171.79 376.16 169.94 379.38 169.03 379.51C168.21 379.63 167.49 379.55 166.89 379.27C166.28 378.99 165.86 378.66 165.62 378.27C165.38 377.89 165.03 377.28 164.58 376.47C164.13 375.65 163.83 375.11 163.7 374.85C162.31 372.44 162.57 368.01 164.5 361.56C164.75 360.77 165.14 359.59 165.65 358.02C165.76 357.53 165.85 357.19 165.92 357C167.23 352.69 169.45 346.96 172.58 339.81C175.7 332.66 178.51 326.47 180.99 321.24C183.47 316.01 187.46 307.77 192.96 296.53C198.46 285.29 202.21 277.6 204.2 273.47C206.77 268.23 208.2 265.3 208.48 264.7C199.09 271.16 186.63 277.27 171.09 283.02C155.56 288.77 141.87 292.63 130.03 294.6L97.01 345.12C95.64 347.19 93.79 347.94 91.46 347.36C89.51 346.81 88.82 345.65 89.4 343.89C89.54 343.59 89.73 343.28 89.96 342.96C91.58 339.44 92.76 336.84 93.48 335.14C94.21 333.44 95.27 330.9 96.68 327.51C98.09 324.12 99.07 321.5 99.63 319.64C100.19 317.78 100.86 315.44 101.65 312.61C102.44 309.78 102.8 307.51 102.72 305.79C102.65 304.07 102.48 302.3 102.2 300.47C101.92 298.64 101.23 297.14 100.12 295.95C99.01 294.77 97.6 293.83 95.92 293.15C95.2 292.7 94.84 291.89 94.85 290.72C94.85 289.55 95.26 288.37 96.07 287.17C96.87 285.98 97.66 285.51 98.45 285.76C99.03 285.86 99.88 286.1 101.01 286.49C102.14 286.88 103 287.17 103.59 287.36L103.71 287.2L103.87 287.32C110.22 289.16 117.52 289.56 125.77 288.5C148.01 251.99 158.37 228.66 156.84 218.52C155.96 212.68 152.41 210.22 146.2 211.15C138.71 212.28 130.79 215.53 122.44 220.9C114.34 226.04 106.63 232.53 99.31 240.36C91.99 248.19 87.59 254.65 86.11 259.72C86.81 260.64 87.03 261.96 86.78 263.68C86.52 265.4 85.68 266.46 84.25 266.86C82.72 267.28 81.44 267.12 80.4 266.39C79.36 265.66 78.77 264.56 78.64 263.08C78.14 257.93 82.4 250.25 91.43 240.07C100.45 229.88 109.59 221.71 118.84 215.55C128.09 209.39 137.2 205.64 146.15 204.29C150.44 203.64 154.2 204.55 157.42 207C160.64 209.46 162.61 213.06 163.33 217.81C165.12 229.69 155.6 252.7 134.78 286.85C146.36 284.36 159.02 280.3 172.74 274.68C186.47 269.06 197.38 263.36 205.47 257.56C211.95 252.85 215.4 250.32 215.82 249.98C235.24 212.12 248.56 192.64 255.78 191.55C257.51 191.29 259.21 191.69 260.87 192.75C262.52 193.81 263.48 195.21 263.74 196.94H263.71ZM108.62 295.7C110.31 301.33 110.05 308.33 107.86 316.69L121.36 295.6C116.75 296.01 112.51 296.05 108.62 295.7ZM230.85 237.35C236.23 232.15 241.13 226.83 245.54 221.4C249.95 215.97 253.15 211.35 255.15 207.55C257.14 203.75 257.44 201.53 256.04 200.9C254.55 200.29 252.31 202.16 249.32 206.54C245.62 211.77 239.46 222.04 230.84 237.35H230.85Z" fill="white"/>
<path d="M290.05 266.68C290.9 265.52 291.55 265.75 291.98 267.37C292.56 269.99 292.05 272.45 290.43 274.75L290.08 275.22C290 275.33 289.05 276.59 287.22 279.01C285.39 281.43 283.5 283.96 281.56 286.59C279.62 289.22 277.23 292.24 274.38 295.66C271.53 299.08 268.91 302.11 266.51 304.76C264.11 307.41 261.74 309.73 259.43 311.71C257.11 313.69 255.32 314.78 254.04 314.97C252.49 315.2 250.87 314.54 249.19 312.97C247.5 311.4 246.54 309.8 246.29 308.15C245.49 302.85 247.39 295.28 251.98 285.43C239.26 301.45 231.16 309.72 227.69 310.25C226.05 310.5 224.36 309.89 222.65 308.42C220.94 306.95 219.9 305.03 219.54 302.65C218.96 298.81 220.89 292.87 225.33 284.82C229.77 276.77 234.93 269.38 240.83 262.66C246.73 255.93 251.37 252.31 254.75 251.8C257.3 251.42 259.85 251.71 262.38 252.68C264.91 253.65 266.76 254.94 267.93 256.54C270.56 252.31 272.71 249.51 274.37 248.14C275.61 247.11 277.36 247.5 279.59 249.32C281.51 250.9 281.96 252.04 280.95 252.76C280.87 252.87 280.74 252.93 280.56 252.96C278.96 253.48 275.58 257.89 270.43 266.19C265.28 274.49 260.75 282.99 256.83 291.71C252.91 300.43 251.79 305.41 253.48 306.65C255.07 307.9 260.22 303.37 268.94 293.04C277.66 282.71 284.7 273.92 290.05 266.67V266.68ZM226.44 302.05C227.76 303.35 233.39 298.39 243.33 287.17C253.27 275.96 259.77 267.83 262.85 262.79C262.35 261.93 261.38 261.07 259.94 260.22C258.5 259.37 257.1 259.04 255.73 259.24C252.62 259.71 248.44 263.23 243.17 269.82C237.91 276.41 233.5 283.12 229.95 289.96C226.4 296.8 225.24 300.83 226.45 302.05H226.44Z" fill="white"/>
<path d="M325.45 244.95C326.5 243.86 328.13 244.45 330.34 246.74C332.1 248.53 332.5 249.59 331.52 249.93C331.15 249.98 330.77 250.21 330.36 250.59C329.95 250.98 329.46 251.61 328.89 252.49C328.32 253.37 327.86 254.14 327.49 254.8C327.12 255.47 326.6 256.48 325.92 257.84C325.24 259.21 324.71 260.19 324.34 260.81C323.62 262.23 322.54 264.19 321.09 266.69C319.65 269.2 317.32 273.28 314.11 278.95C310.9 284.62 307.82 290.06 304.87 295.27C307.96 295.27 310.48 295.94 312.46 297.28C314.43 298.62 315.7 300.22 316.27 302.1C316.75 303.43 316.9 304.25 316.71 304.56C316.52 304.87 316.26 304.95 315.91 304.82C315.56 304.68 315.11 304.33 314.56 303.76C311.65 301.21 307.55 300.33 302.25 301.13L301.43 301.25L297.21 308.61C293.96 314.33 291.6 318.49 290.13 321.1C288.65 323.71 286.01 328.21 282.22 334.62C278.42 341.03 275.26 346.08 272.73 349.78C270.21 353.47 267.3 357.56 264 362.03C260.7 366.5 257.75 369.86 255.15 372.12C252.55 374.38 250.24 375.66 248.23 375.96C246.59 376.21 245.14 375.75 243.89 374.58C242.64 373.41 241.78 372.19 241.3 370.91C240.83 369.63 240.51 368.48 240.36 367.48C239.66 362.82 242.6 354.58 249.18 342.75C255.76 330.92 263.29 320.96 271.79 312.86C280.61 304.43 288.86 299.03 296.53 296.66C296.83 296.15 298.48 293.17 301.49 287.72C304.5 282.27 306.89 278.01 308.67 274.94C296.94 289.51 289.3 297.06 285.74 297.59C284.28 297.81 282.92 297.03 281.68 295.26C280.43 293.49 279.68 291.78 279.43 290.13C278.88 286.48 280.83 280.95 285.27 273.56C289.71 266.17 294.62 259.52 299.99 253.62C305.36 247.72 309.09 244.61 311.19 244.3C315.76 243.61 319.54 245.14 322.53 248.9C323.34 247.47 324.31 246.16 325.44 244.96L325.45 244.95ZM286.72 313.42L291.98 304.64C286.53 307.51 280.41 312.46 273.61 319.46C268.13 325.24 263.21 331.65 258.85 338.71C254.5 345.76 251.51 351.68 249.89 356.45C248.28 361.22 248.05 364.04 249.21 364.89C250.35 365.65 252.5 364.28 255.66 360.76C258.82 357.25 262.54 352.18 266.82 345.56C271.1 338.94 274.71 333.25 277.63 328.52C280.56 323.78 283.58 318.75 286.7 313.42H286.72ZM287.01 289.28C287.85 289.9 292.58 285.31 301.19 275.51C309.8 265.71 315.25 259.1 317.54 255.67C317.03 254.16 316.18 253.12 314.97 252.55C313.76 251.99 312.49 251.9 311.15 252.29C308.91 252.91 305.56 256.12 301.11 261.93C296.66 267.74 292.91 273.53 289.86 279.32C286.81 285.1 285.86 288.42 287.02 289.28H287.01Z" fill="white"/>
<path d="M338.85 295.76C337.21 296.01 335.55 295.28 333.9 293.56C332.24 291.85 331.26 289.99 330.95 287.98C330.41 284.42 331.07 279.97 332.94 274.65C334.8 269.32 337.14 264.26 339.96 259.44C346.85 248.13 351.01 241.66 352.45 240.04C353.25 239.17 353.97 238.69 354.61 238.59C356.53 238.3 357.99 239.3 358.99 241.58C359.75 243.52 359.64 244.66 358.66 244.99C357.47 245.17 354.84 248.49 350.77 254.94C346.7 261.39 343.18 268.11 340.22 275.1C337.25 282.09 336.61 286.2 338.3 287.44C339.88 288.6 343.65 285.91 349.62 279.36C355.59 272.81 362.22 264.59 369.52 254.71C370.68 253.13 371.34 253.13 371.48 254.7C371.77 257.27 371.24 259.97 369.89 262.79L369.33 263.71C368.55 264.76 367.06 266.76 364.84 269.71C362.62 272.66 361.01 274.8 359.99 276.12C358.97 277.44 357.48 279.3 355.51 281.7C353.53 284.1 351.96 285.93 350.8 287.17C349.63 288.42 348.27 289.77 346.72 291.22C345.16 292.67 343.74 293.75 342.44 294.46C341.14 295.17 339.95 295.61 338.85 295.77V295.76ZM365.65 228.1C364.84 228.32 364.16 228 363.61 227.15C363.06 226.3 362.91 225.43 363.15 224.56C363.86 221.84 365.87 218.15 369.19 213.49C372.5 208.84 375.02 206.33 376.75 205.98C378.01 205.7 379.19 205.89 380.27 206.57C381.35 207.25 382.04 208.22 382.32 209.48C382.55 210.38 379.96 213.69 374.57 219.41C369.18 225.13 366.2 228.03 365.65 228.11V228.1Z" fill="white"/>
<path d="M367.35 291.46C365.71 291.71 364.05 290.98 362.4 289.26C360.74 287.55 359.76 285.69 359.46 283.68C358.92 280.12 359.58 275.67 361.44 270.35C363.3 265.02 365.64 259.96 368.47 255.14C375.36 243.83 379.52 237.36 380.96 235.74C381.76 234.87 382.48 234.39 383.12 234.29C385.04 234 386.5 235 387.49 237.28C388.25 239.22 388.14 240.36 387.16 240.69C385.97 240.87 383.34 244.19 379.27 250.64C375.2 257.09 371.68 263.81 368.72 270.8C365.75 277.79 365.11 281.9 366.8 283.14C368.38 284.3 372.15 281.61 378.12 275.06C384.09 268.51 390.72 260.29 398.02 250.41C399.18 248.83 399.84 248.83 399.98 250.39C400.27 252.96 399.74 255.66 398.39 258.48L397.83 259.4C397.05 260.45 395.56 262.45 393.34 265.4C391.12 268.35 389.5 270.49 388.49 271.81C387.47 273.13 385.98 274.99 384.01 277.39C382.03 279.79 380.46 281.62 379.3 282.87C378.13 284.12 376.77 285.47 375.22 286.92C373.66 288.37 372.24 289.45 370.94 290.16C369.64 290.87 368.45 291.31 367.35 291.47V291.46ZM394.15 223.81C393.34 224.03 392.66 223.71 392.11 222.85C391.56 222 391.41 221.13 391.65 220.26C392.36 217.54 394.37 213.85 397.69 209.19C401 204.54 403.52 202.03 405.25 201.68C406.51 201.4 407.69 201.59 408.77 202.27C409.85 202.95 410.54 203.92 410.82 205.18C411.05 206.08 408.46 209.39 403.07 215.11C397.67 220.83 394.7 223.73 394.15 223.81ZM394.15 223.81C393.34 224.03 392.66 223.71 392.11 222.85C391.56 222 391.41 221.13 391.65 220.26C392.36 217.54 394.37 213.85 397.69 209.19C401 204.54 403.52 202.03 405.25 201.68C406.51 201.4 407.69 201.59 408.77 202.27C409.85 202.95 410.54 203.92 410.82 205.18C411.05 206.08 408.46 209.39 403.07 215.11C397.67 220.83 394.7 223.73 394.15 223.81Z" fill="white"/>
<path d="M529.43 135.88C535.46 134.97 541.24 136.32 546.78 139.92C552.32 143.52 555.66 149.07 556.78 156.56C557.8 163.32 556.03 173.16 551.49 186.08C546.95 199 540.55 212.67 532.31 227.08C524.06 241.49 515.09 255.41 505.39 268.83C495.69 282.25 485.59 293.63 475.08 302.96C464.58 312.3 455.39 317.56 447.54 318.74C442.33 319.53 437.63 318.34 433.41 315.19C429.2 312.04 426.68 307.73 425.86 302.25C424.51 293.3 426.19 282.58 430.89 270.1C435.59 257.62 442 245.73 450.11 234.42C454.54 219.18 461.44 204.08 470.82 189.12C480.2 174.16 490.21 161.87 500.85 152.23C511.49 142.59 521.02 137.14 529.43 135.87V135.88ZM445.45 311.36C451.75 310.41 458.95 306.59 467.05 299.91C475.15 293.23 483.1 285.04 490.89 275.37C498.68 265.7 506.33 254.97 513.85 243.18C521.37 231.4 527.89 220 533.43 208.98C538.96 197.97 543.33 187.73 546.53 178.28C549.73 168.83 551.05 161.67 550.51 156.8C550.03 151.74 548.13 148.12 544.81 145.96C541.5 143.8 536.96 143.15 531.21 144.02C521.07 145.55 509.58 153.47 496.75 167.78C483.91 182.09 473.18 198.45 464.56 216.84C473.1 208.46 480.55 203.6 486.89 202.27C490.24 201.58 492.77 201.94 494.48 203.37C496.19 204.8 497.18 206.38 497.44 208.11C497.73 210.03 496.69 211.17 494.31 211.52C493.76 211.6 492.89 211.36 491.68 210.8C489.91 210.22 488.66 209.99 487.93 210.1C484 210.69 479.15 213.66 473.37 219.02C467.59 224.38 461.81 231.13 456.04 239.29C451.96 253.17 450.66 265 452.14 274.77C453.16 281.53 456.87 284.8 463.28 284.58C464.48 284.49 465.29 284.6 465.71 284.91C466.13 285.22 466.42 285.88 466.57 286.88C466.94 289.35 464.84 290.92 460.28 291.61C457.63 292.01 454.8 290.92 451.8 288.33C448.8 285.75 446.9 281.85 446.12 276.65C445.09 269.8 444.99 262.67 445.84 255.25C435.21 273.95 430.69 288.64 432.31 299.33C433.04 304.17 434.43 307.53 436.49 309.42C438.54 311.31 441.54 311.95 445.47 311.36H445.45Z" fill="white"/>
<path d="M594.18 226.18C597.97 224.68 601.21 224.14 603.89 224.58C604.86 224.81 604.91 225.17 604.06 225.68C603.97 225.69 603.84 225.76 603.67 225.88C598.15 228.3 593.65 230.38 590.18 232.12C583.1 242.81 576.72 251.29 571.03 257.57C565.34 263.85 560.17 267.33 555.51 268.04C553.68 268.31 551.85 267.61 550.01 265.93C548.17 264.24 547.07 262.21 546.71 259.84C546.17 256.28 549.38 251.85 556.34 246.55C563.3 241.25 572.05 236.13 582.61 231.17C591.3 217.53 594.45 209.96 592.08 208.44C590.23 207.32 585.64 209.72 578.31 215.63C570.98 221.55 562.58 230.1 553.1 241.29C543.62 252.48 535.81 263.72 529.67 275.02C520.67 294.03 514.48 307.81 511.09 316.35C511.94 315.75 513.59 314.01 516.05 311.12C517.09 309.94 517.54 309.87 517.42 310.91C517.11 313.2 515.66 316.92 513.08 322.07C511.76 324.51 510.76 326.34 510.06 327.57C509.36 328.8 508.42 330.01 507.24 331.22C506.07 332.42 504.89 333.12 503.7 333.29C501.51 333.62 500.2 332.42 499.79 329.68C499.42 327.21 500.22 323.87 502.2 319.65C502.83 318.25 505.37 312.61 509.81 302.74C514.25 292.87 518.69 283.09 523.12 273.41C527.55 263.73 530.82 256.9 532.93 252.94C550.21 220.72 560.87 202.49 564.9 198.24C566.36 196.81 568.32 197.12 570.78 199.18C572.71 200.85 573.28 202.12 572.48 202.99C572.41 203.19 572.29 203.3 572.11 203.33C571.67 203.49 570.67 204.51 569.13 206.37C567.59 208.24 565.35 211.21 562.42 215.3C559.49 219.38 556.48 223.95 553.41 228.99C551.76 231.67 549.59 235.55 546.9 240.62C553.71 231.28 561.92 222.38 571.53 213.93C581.14 205.48 588.55 200.85 593.76 200.07C598.14 199.41 600.92 201.7 602.08 206.94C602.86 210.28 600.24 216.7 594.19 226.21L594.18 226.18ZM556.7 258.31C558.2 259.58 560.97 258.16 565.03 254.04C569.08 249.93 573.14 244.95 577.21 239.1C564.52 246.62 557.53 252.3 556.23 256.13C555.91 257.11 556.07 257.84 556.7 258.3V258.31Z" fill="white"/>
<path d="M651.6 212.06C652.3 211.11 652.74 211.24 652.92 212.42C653.26 215.27 652.15 218.8 649.61 223.01L647.28 226.16C637.88 237.57 630.59 245.59 625.4 250.2C620.21 254.81 615.82 257.29 612.23 257.65C609.84 257.92 607.61 257.04 605.53 255.02C603.45 253 602.26 250.66 601.95 247.99C601.37 242.94 603.26 236.09 607.61 227.45C611.96 218.81 617.11 211.14 623.06 204.45C629.01 197.76 633.87 194.18 637.62 193.71C639.46 193.53 641.24 194.03 642.96 195.22C644.68 196.41 645.64 197.97 645.84 199.9C646.26 203.95 642.85 209.53 635.61 216.65C628.37 223.77 620.37 229.9 611.62 235.05C608.31 242.83 607.78 247.68 610.03 249.58C615.06 253.87 628.92 241.36 651.6 212.07V212.06ZM632.32 211.04C636.59 206.85 637.99 204.21 636.52 203.12C635.05 202.03 632.37 203.63 628.48 207.9C624.59 212.18 620.8 217.54 617.1 223.98C622.97 219.55 628.04 215.23 632.31 211.04H632.32Z" fill="white"/>
<path d="M695.4 202.37C692.94 202.74 689.78 206.49 685.95 213.6C682.12 220.72 680.47 226.06 681 229.62C681.37 232.09 682.65 233.15 684.85 232.82C688.87 232.21 694.75 227.54 702.5 218.81C703.86 217.3 704.57 217.05 704.63 218.07C704.58 219.57 703.68 221.72 701.96 224.5C700.15 227.39 697.25 230.79 693.27 234.71C689.28 238.63 685.69 240.83 682.49 241.31C680.39 241.63 678.58 241.25 677.06 240.17C675.54 239.09 674.6 237.32 674.23 234.85C673.76 231.75 674.26 227.93 675.73 223.41C670.14 230.32 664.48 236.34 658.76 241.45C653.04 246.56 648.49 249.37 645.11 249.88C642.28 250.31 640.16 249.76 638.77 248.24C637.37 246.72 636.52 244.91 636.2 242.81C635.88 240.71 636.25 238.97 637.31 237.6C638.36 236.23 639.66 235.42 641.22 235.19C642.5 235 643.63 235.55 644.62 236.85C645.61 238.15 646.18 239.63 646.34 241.29C649.33 240.65 653.6 237.88 659.17 232.98C664.74 228.08 669.69 222.68 674.04 216.8C676.76 213.12 678.96 209.64 680.66 206.34C682.36 203.05 683.38 200.54 683.73 198.8C684.07 197.07 684.03 196 683.6 195.6C683.18 195.29 682.6 195.19 681.87 195.3C679.4 195.67 675.16 198.18 669.13 202.83C662.03 208.39 657.72 213.57 656.2 218.37C655.43 220.73 654.04 222.06 652.04 222.36C651.03 222.51 650.11 222.09 649.26 221.1C648.41 220.11 647.89 218.97 647.7 217.69C647.41 215.77 648.97 212.97 652.39 209.28C655.8 205.59 659.97 201.83 664.91 198C673.94 190.94 680.09 187.16 683.38 186.67C685.39 186.37 687.15 187.06 688.67 188.75C690.19 190.44 691.09 192.29 691.4 194.29C691.48 194.84 691.5 195.26 691.45 195.54C692.34 194.66 693.16 194.16 693.89 194.05C695.53 193.8 697.29 194.31 699.16 195.57C701.03 196.83 702.07 198.14 702.28 199.51C702.36 200.06 702.28 200.49 702.06 200.81C701.61 201.53 700.83 201.98 699.74 202.14C699.28 202.21 698.57 202.25 697.59 202.25C696.61 202.25 695.89 202.3 695.43 202.37H695.4Z" fill="white"/>
<path d="M764.35 183.86C765.37 183.15 765.92 183.11 766.02 183.75C766.2 184.94 764.83 186.73 761.93 189.13C761.84 189.14 761.75 189.21 761.68 189.31C756.16 193.6 749.91 196.17 742.95 197.04C741.94 197.19 740.5 197.22 738.62 197.13C735.89 204.45 730.4 214.32 722.13 226.73C713.86 239.14 707.7 245.51 703.64 245.84C702.35 245.94 700.92 245.46 699.36 244.38C697.8 243.31 696.9 241.71 696.68 239.6C696.45 237.49 698.86 231.29 703.89 221C708.93 210.71 714.63 200.68 721 190.89C727.37 181.1 731.88 176.01 734.53 175.61C736.63 175.29 738.33 176.07 739.64 177.92C740.59 179.27 740.47 180.04 739.29 180.22C738.1 180.4 736.73 181.21 735.17 182.66C737.78 183.86 739.19 186.73 739.41 191.27C741.11 191.39 742.51 191.36 743.61 191.2C746.45 190.87 750.14 189.89 754.66 188.27C759.18 186.66 762.41 185.19 764.36 183.87L764.35 183.86ZM706.35 234.07C707.4 234.85 710.06 232.37 714.34 226.63C718.61 220.89 722.64 214.61 726.43 207.78C730.21 200.95 731.96 196.58 731.67 194.66L731.55 193.84C730.58 192.96 729.68 191.97 728.86 190.88C723.81 198.93 718.51 207.92 712.96 217.87C707.4 227.81 705.21 233.21 706.37 234.07H706.35Z" fill="white"/>
<path d="M832.83 98.0104C834.38 97.7804 835.78 98.3904 837.03 99.8304C838.28 101.28 839.04 102.91 839.31 104.74C839.87 108.49 836.39 115.41 828.85 125.52C821.31 135.62 812.92 145.67 803.69 155.65C798.14 161.62 787.76 172.06 772.53 186.97C775.22 186.19 777.34 185.69 778.89 185.45C782.18 184.95 784.69 185.23 786.44 186.27C787.25 186.71 787.18 187.19 786.23 187.7C785.8 187.95 783.87 188.62 780.44 189.7C777.01 190.78 773.94 191.99 771.25 193.33C771.16 198.3 769.97 204.2 767.68 211.03C765.39 217.87 762.35 224 758.54 229.43C754.73 234.86 751.05 237.85 747.49 238.38C743.38 239 740.98 237.03 740.29 232.46C740.21 231.91 740.2 231.26 740.27 230.5C740.34 229.74 740.58 228.82 740.98 227.73C741.38 226.64 741.76 225.61 742.12 224.61C742.49 223.62 743.08 222.29 743.9 220.63C744.72 218.96 745.44 217.5 746.04 216.24C746.64 214.98 747.57 213.23 748.82 210.99C750.07 208.75 751.11 206.84 751.95 205.26C752.78 203.69 753.99 201.45 755.56 198.55C757.13 195.65 758.47 193.23 759.58 191.29C763.02 184.98 767.9 176.93 774.23 167.15C780.55 157.37 787.4 147.32 794.77 137.01C802.14 126.7 809.38 117.76 816.51 110.19C823.64 102.63 829.07 98.5604 832.82 97.9904L832.83 98.0104ZM748.33 229.99C750 230.58 752.17 228.85 754.83 224.81C757.49 220.77 759.79 215.77 761.75 209.82C763.7 203.87 764.51 198.83 764.16 194.67C761.95 197.99 758.51 204.63 753.85 214.58C749.18 224.53 747.34 229.67 748.32 229.98L748.33 229.99ZM777.77 173.43C785.51 165.91 796.05 154.31 809.37 138.61C822.7 122.92 828.54 114.59 826.9 113.62C822.67 110.99 806.29 130.93 777.76 173.43H777.77Z" fill="white"/>
<path d="M788.36 233.49C786.8 233.72 785.26 233.05 783.71 231.46C782.16 229.87 781.27 228.3 781.04 226.75C780.54 223.46 781.33 218.74 783.39 212.59C785.45 206.44 788.37 200.37 792.14 194.39C796.74 187.07 801.34 180.88 805.95 175.84C810.56 170.8 814.77 167.86 818.56 167C821 166.45 823.16 166.68 825.04 167.7C826.92 168.73 828.04 170.38 828.38 172.66C828.78 175.31 828.1 178.24 826.34 181.44C824.58 184.65 822.69 186.4 820.68 186.7C817.94 187.11 816.33 186.66 815.85 185.33C815.68 184.8 815.88 184.3 816.47 183.84C817.53 182.84 818.55 181.1 819.54 178.61C820.52 176.13 820.51 174.68 819.52 174.27C816.89 172.98 810.31 180.42 799.76 196.58C796.28 201.96 793.43 207.3 791.24 212.58C789.05 217.86 788.11 221.56 788.42 223.66C788.6 224.85 789.1 225.38 789.92 225.25C791.47 225.02 794.27 223.4 798.3 220.42C802.33 217.43 806.03 214.42 809.41 211.39C813.86 207.45 816.63 205.07 817.72 204.25C818.65 203.65 818.82 203.85 818.23 204.87C818.09 205.17 817.71 205.79 817.1 206.72C813.46 212.31 808.65 218.04 802.66 223.89C796.68 229.74 791.9 232.94 788.34 233.47L788.36 233.49Z" fill="white"/>
<path d="M853.47 159.64C854.93 159.42 856.27 160.25 857.48 162.12C858.13 163.33 858.14 164.03 857.52 164.22C856.42 164.39 853.92 167.31 850.01 172.99C846.1 178.67 843.05 183.83 840.85 188.45C843.21 189.22 844.22 191.42 843.88 195.07C843.54 198.72 842.1 202.93 839.55 207.7C834.53 217.14 830 222.17 825.99 222.77C823.25 223.18 821.66 221.93 821.22 219.01C820.67 215.36 823.44 207.74 829.55 196.18C827.78 194.39 827.42 192.58 828.45 190.74C829.34 189.2 831.17 188.32 833.94 188.09C834.07 187.7 834.37 187.18 834.83 186.55C835.3 185.92 835.59 185.41 835.72 185.01C845.64 168.38 851.56 159.92 853.48 159.63L853.47 159.64ZM828.94 211.68C829.93 212.09 831.75 210.02 834.38 205.47C837.01 200.92 837.75 198.26 836.61 197.5C836.09 197.11 835.14 198.07 833.76 200.38C832.38 202.69 831.16 205.12 830.09 207.66C829.02 210.2 828.64 211.54 828.95 211.68H828.94Z" fill="white"/>
<path d="M905.68 190.02C907.16 189.33 908.27 188.93 909 188.82C909.73 188.71 910.14 188.77 910.22 188.99C910.3 189.21 910.2 189.62 909.92 190.23C909.64 190.83 909.32 191.35 908.96 191.77C908.61 192.2 908.19 192.68 907.71 193.22C906.12 195.05 901.54 198.45 893.97 203.42C886.4 208.39 880.43 211.2 876.05 211.87C873.12 212.31 870.56 211.7 868.34 210.02C866.13 208.35 864.44 206.15 863.28 203.43C860.66 207.75 858.91 211 858.02 213.19C856.92 215.78 856.52 218.09 856.82 220.1C857.08 221.83 856.34 222.83 854.6 223.09C853.33 223.28 852.14 222.85 851.05 221.81C849.96 220.76 849.28 219.37 849.02 217.63C848.72 215.62 852.79 207.11 861.22 192.11C869.65 177.11 876.65 165.08 882.19 156.02C882.82 154.62 884.3 154.49 886.62 155.63C888.76 156.8 889.4 157.97 888.55 159.12C887.77 160.17 886.89 161.45 885.9 162.95C884.91 164.46 883.41 166.9 881.4 170.28C879.39 173.67 877.93 176.08 877.03 177.52C879.84 174.48 883.96 170.66 889.39 166.06C894.82 161.46 898.26 159.05 899.72 158.83C901.27 158.6 902.53 159.53 903.5 161.62C904.27 163.65 904.04 164.9 902.8 165.37C899.33 165.89 893.22 170.65 884.49 179.62C880.12 184.11 876.66 188.44 874.11 192.6C871.56 196.77 870.44 199.86 870.74 201.87C871.01 203.7 872.38 204.42 874.85 204.05C878.23 203.54 881.8 202.44 885.56 200.76C889.32 199.07 893.29 197.03 897.46 194.62C901.63 192.22 904.36 190.69 905.67 190.02H905.68Z" fill="white"/>
<path d="M964.8 153.65C965.82 152.94 966.37 152.9 966.47 153.54C966.65 154.73 965.29 156.52 962.38 158.92C962.29 158.93 962.2 159 962.13 159.1C956.61 163.39 950.37 165.96 943.4 166.83C942.39 166.98 940.95 167.01 939.07 166.92C936.34 174.25 930.85 184.11 922.58 196.52C914.31 208.93 908.15 215.3 904.09 215.63C902.8 215.73 901.37 215.25 899.81 214.17C898.25 213.1 897.35 211.5 897.13 209.39C896.9 207.28 899.31 201.08 904.34 190.79C909.38 180.5 915.08 170.47 921.45 160.68C927.82 150.89 932.33 145.8 934.98 145.4C937.08 145.08 938.78 145.86 940.09 147.71C941.04 149.06 940.92 149.83 939.74 150.01C938.55 150.19 937.18 151 935.62 152.45C938.23 153.65 939.64 156.52 939.86 161.06C941.56 161.18 942.96 161.15 944.05 160.99C946.9 160.66 950.58 159.68 955.1 158.06C959.62 156.45 962.86 154.98 964.81 153.66L964.8 153.65ZM906.79 203.87C907.84 204.65 910.5 202.17 914.77 196.43C919.04 190.69 923.07 184.41 926.86 177.58C930.64 170.75 932.39 166.38 932.1 164.46L931.98 163.64C931.01 162.76 930.11 161.77 929.29 160.68C924.24 168.73 918.94 177.72 913.39 187.67C907.83 197.62 905.64 203.02 906.8 203.87H906.79Z" fill="white"/>
<path d="M952.93 203.22C951.29 203.47 949.64 202.74 947.98 201.02C946.32 199.31 945.34 197.45 945.04 195.44C944.5 191.88 945.16 187.43 947.02 182.11C948.88 176.78 951.22 171.72 954.05 166.9C960.94 155.59 965.1 149.12 966.54 147.5C967.34 146.63 968.06 146.15 968.7 146.05C970.62 145.76 972.08 146.76 973.07 149.03C973.83 150.97 973.72 152.11 972.74 152.44C971.55 152.62 968.92 155.94 964.85 162.39C960.78 168.84 957.26 175.56 954.3 182.55C951.33 189.54 950.69 193.65 952.38 194.89C953.96 196.05 957.73 193.36 963.7 186.81C969.67 180.26 976.3 172.04 983.6 162.16C984.76 160.58 985.42 160.58 985.56 162.15C985.85 164.72 985.32 167.42 983.97 170.23L983.41 171.16C982.63 172.21 981.14 174.21 978.92 177.16C976.7 180.11 975.09 182.25 974.07 183.57C973.05 184.89 971.56 186.75 969.59 189.15C967.62 191.55 966.04 193.38 964.88 194.62C963.71 195.87 962.35 197.22 960.8 198.67C959.24 200.12 957.82 201.2 956.52 201.91C955.22 202.62 954.03 203.06 952.93 203.22ZM979.73 135.57C978.92 135.79 978.24 135.47 977.69 134.61C977.14 133.76 976.99 132.9 977.23 132.02C977.94 129.3 979.95 125.61 983.27 120.95C986.58 116.3 989.1 113.79 990.83 113.44C992.09 113.16 993.27 113.35 994.35 114.03C995.43 114.71 996.12 115.68 996.4 116.94C996.63 117.84 994.04 121.15 988.65 126.87C983.25 132.59 980.28 135.49 979.73 135.57Z" fill="white"/>
<path d="M963.47 130.21C962.66 130.43 961.98 130.11 961.43 129.26C960.88 128.41 960.73 127.54 960.97 126.67C961.68 123.95 963.7 120.26 967.01 115.6C970.33 110.95 972.84 108.44 974.57 108.09C975.84 107.81 977.01 108 978.09 108.68C979.18 109.36 979.86 110.33 980.14 111.59C980.37 112.49 977.78 115.8 972.39 121.52C966.99 127.24 964.02 130.14 963.47 130.22V130.21Z" fill="white"/>
</svg>
