<svg width="999" height="394" viewBox="0 0 999 394" fill="none" xmlns="http://www.w3.org/2000/svg">
<g filter="url(#filter0_d_1799_1061)">
<path d="M332.85 33.4404L325.81 73.5104H321.8L327.7 39.7904L309.84 62.9704H309.27L299.2 39.1604L293.19 73.5104H289.18L296.22 33.4404H300.91L310.41 56.0004L327.82 33.4404H332.86H332.85Z" fill="white"/>
<path d="M364.16 44.8904H367.94L362.9 73.5104H359.12L359.98 68.6404C356.89 72.3404 352.75 74.1904 347.56 74.1904C343.55 74.1904 340.33 72.6404 337.89 69.5504C335.45 66.4604 334.59 62.8104 335.31 58.6204C336.11 54.0404 338.09 50.4904 341.24 47.9704C344.39 45.4504 347.87 44.1904 351.69 44.1904C354.17 44.1904 356.44 44.7704 358.5 45.9404C360.56 47.1004 362.09 48.7704 363.08 50.9504L364.17 44.8804L364.16 44.8904ZM348.48 70.5404C351.61 70.5404 354.41 69.5404 356.89 67.5404C359.37 65.5404 360.92 62.9904 361.53 59.9004L361.64 59.2104C362.17 55.7004 361.46 52.9304 359.49 50.9104C357.52 48.8904 355.01 47.8704 351.96 47.8704C348.91 47.8704 346.24 48.8404 343.74 50.7904C341.24 52.7404 339.68 55.4504 339.07 58.9204C338.54 62.1304 339.17 64.8704 340.96 67.1404C342.75 69.4104 345.25 70.5504 348.46 70.5504L348.48 70.5404Z" fill="white"/>
<path d="M396.79 44.8902H400L394.96 73.5102H391.18L394.96 51.7602L374.12 73.5102H370.91L375.95 44.8902H379.73L375.89 66.6402L396.79 44.8902ZM381.34 40.3102L381.91 36.9902H396.79L396.22 40.3102H381.33H381.34Z" fill="white"/>
<path d="M416.26 74.2002C412.1 74.2002 408.81 72.6602 406.38 69.5902C403.96 66.5202 403.13 62.8402 403.89 58.5702C404.61 54.3702 406.62 50.9302 409.9 48.2402C413.18 45.5502 416.96 44.2002 421.24 44.2002C424.02 44.2002 426.47 44.8702 428.57 46.2002C430.67 47.5302 432.12 49.3502 432.92 51.6402L429.66 53.3002C429.05 51.6202 427.98 50.3002 426.45 49.3202C424.92 48.3402 423.07 47.8602 420.9 47.8602C417.66 47.8602 414.78 48.9202 412.29 51.0402C409.79 53.1602 408.25 55.8002 407.68 58.9702C407.15 62.2102 407.74 64.9502 409.46 67.1802C411.18 69.4102 413.66 70.5302 416.9 70.5302C419.08 70.5302 421.09 70.0202 422.94 68.9902C424.79 67.9602 426.27 66.5702 427.38 64.8102L430.42 66.8102C428.97 69.1402 427 70.9502 424.52 72.2502C422.04 73.5502 419.29 74.2002 416.28 74.2002H416.26Z" fill="white"/>
<path d="M459.71 44.8906L459.08 48.5506H448.95L444.54 73.5106H440.76L445.17 48.5506H435.04L435.67 44.8906H459.71Z" fill="white"/>
<path d="M476.03 44.21C480.34 44.21 483.64 45.7 485.91 48.68C488.18 51.66 488.89 55.21 488.06 59.33C487.95 60.02 487.79 60.61 487.6 61.1H462.58C462.47 64 463.28 66.3 465.01 68C466.75 69.7 469.12 70.55 472.14 70.55C476.53 70.55 479.91 68.91 482.27 65.63L485.25 67.58C483.88 69.68 481.94 71.31 479.44 72.48C476.94 73.64 474.33 74.23 471.62 74.23C467.19 74.23 463.8 72.74 461.43 69.76C459.06 66.78 458.26 63.08 459.03 58.65C459.75 54.45 461.73 51 464.96 48.29C468.18 45.58 471.88 44.23 476.04 44.23L476.03 44.21ZM463.15 57.43H484.45C484.68 54.3 483.99 51.92 482.39 50.3C480.79 48.68 478.59 47.87 475.81 47.87C472.79 47.87 470.15 48.74 467.88 50.48C465.61 52.22 464.03 54.54 463.16 57.44L463.15 57.43Z" fill="white"/>
<path d="M511.92 44.21C515.93 44.21 519.15 45.76 521.59 48.85C524.03 51.94 524.89 55.59 524.17 59.78C523.37 64.36 521.39 67.91 518.25 70.43C515.1 72.95 511.62 74.21 507.8 74.21C505.32 74.21 503.05 73.63 500.99 72.46C498.93 71.29 497.4 69.63 496.41 67.45L493.32 84.97H489.54L496.58 44.9H500.36L499.5 49.77C502.59 46.07 506.73 44.22 511.92 44.22V44.21ZM520.39 59.49C520.93 56.28 520.29 53.55 518.5 51.28C516.71 49.01 514.21 47.87 511 47.87C507.79 47.87 505.07 48.87 502.61 50.88C500.15 52.88 498.59 55.41 497.94 58.47L497.83 59.39C497.33 62.86 498.06 65.59 500.01 67.58C501.96 69.57 504.46 70.56 507.51 70.56C510.56 70.56 513.22 69.59 515.72 67.64C518.22 65.69 519.78 62.98 520.39 59.51V59.49Z" fill="white"/>
<path d="M531.44 57.66L532.07 54H552.68L552.05 57.66H531.44Z" fill="white"/>
<path d="M581.19 44.8906L580.56 48.5506H566.02L561.61 73.5106H557.83L562.87 44.8906H581.19Z" fill="white"/>
<path d="M600.83 44.21C604.84 44.21 608.06 45.76 610.5 48.85C612.94 51.94 613.8 55.59 613.08 59.78C612.28 64.36 610.3 67.91 607.16 70.43C604.01 72.95 600.53 74.21 596.71 74.21C594.23 74.21 591.96 73.63 589.9 72.46C587.84 71.29 586.31 69.63 585.32 67.45L582.23 84.97H578.45L585.49 44.9H589.27L588.41 49.77C591.5 46.07 595.64 44.22 600.83 44.22V44.21ZM609.3 59.49C609.84 56.28 609.2 53.55 607.41 51.28C605.62 49.01 603.12 47.87 599.91 47.87C596.7 47.87 593.98 48.87 591.52 50.88C589.06 52.88 587.5 55.41 586.85 58.47L586.74 59.39C586.24 62.86 586.97 65.59 588.92 67.58C590.87 69.57 593.37 70.56 596.42 70.56C599.47 70.56 602.13 69.59 604.63 67.64C607.13 65.69 608.69 62.98 609.3 59.51V59.49Z" fill="white"/>
<path d="M641.24 44.8906H645.47L627.72 76.1506C626 79.1606 624.02 81.4406 621.77 82.9606C619.52 84.4906 617.13 85.1506 614.61 84.9606L615.24 81.4106C618.41 81.7506 621.29 79.7706 623.88 75.4606L625.08 73.4606L617.41 44.8906H621.25L627.6 69.2206L641.22 44.8906H641.24Z" fill="white"/>
<path d="M674.1 44.8906L669.06 73.5106H665.28L669.69 48.5506H653.2L648.79 73.5106H645.01L650.05 44.8906H674.09H674.1Z" fill="white"/>
<path d="M706.85 44.8904H710.63L705.59 73.5104H701.81L702.67 68.6404C699.58 72.3404 695.44 74.1904 690.25 74.1904C686.24 74.1904 683.02 72.6404 680.58 69.5504C678.14 66.4604 677.28 62.8104 678 58.6204C678.8 54.0404 680.78 50.4904 683.93 47.9704C687.08 45.4504 690.56 44.1904 694.38 44.1904C696.86 44.1904 699.13 44.7704 701.19 45.9404C703.25 47.1004 704.78 48.7704 705.77 50.9504L706.86 44.8804L706.85 44.8904ZM691.16 70.5404C694.29 70.5404 697.09 69.5404 699.57 67.5404C702.05 65.5404 703.6 62.9904 704.21 59.9004L704.32 59.2104C704.85 55.7004 704.14 52.9304 702.17 50.9104C700.2 48.8904 697.69 47.8704 694.64 47.8704C691.59 47.8704 688.92 48.8404 686.42 50.7904C683.92 52.7404 682.36 55.4504 681.75 58.9204C681.22 62.1304 681.85 64.8704 683.64 67.1404C685.43 69.4104 687.93 70.5504 691.14 70.5504L691.16 70.5404Z" fill="white"/>
<path d="M218.71 163.94C219.74 170.79 216.23 179.56 208.18 190.26C200.12 200.96 189.5 211.55 176.32 222.04L168.12 238.27L134.58 308.62C135.81 306.84 137.41 304.32 139.39 301.03C141.37 297.74 142.79 295.57 143.66 294.5C145.16 292.69 146.07 292.55 146.4 294.09C146.7 295.45 146.45 296.93 145.67 298.55C144.52 300.87 142.26 306.26 138.86 314.71C135.46 323.16 132.37 330.54 129.58 336.85C126.79 343.16 124.94 346.38 124.03 346.51C123.21 346.63 122.49 346.55 121.89 346.27C121.28 345.99 120.86 345.66 120.62 345.27C120.38 344.89 120.03 344.28 119.58 343.47C119.13 342.65 118.83 342.11 118.7 341.85C117.31 339.44 117.57 335.01 119.5 328.56C119.75 327.77 120.14 326.59 120.65 325.02C120.76 324.53 120.85 324.19 120.92 324C122.23 319.69 124.45 313.96 127.58 306.81C130.7 299.66 133.51 293.47 135.99 288.24C138.47 283.01 142.46 274.77 147.96 263.53C153.46 252.29 157.21 244.6 159.2 240.47C161.77 235.23 163.2 232.3 163.48 231.7C154.09 238.16 141.63 244.27 126.09 250.02C110.56 255.77 96.87 259.63 85.03 261.6L52.01 312.12C50.64 314.19 48.79 314.94 46.46 314.36C44.51 313.81 43.82 312.65 44.4 310.89C44.54 310.59 44.73 310.28 44.96 309.96C46.58 306.44 47.76 303.84 48.48 302.14C49.21 300.44 50.27 297.9 51.68 294.51C53.09 291.12 54.07 288.5 54.63 286.64C55.19 284.78 55.86 282.44 56.65 279.61C57.44 276.78 57.8 274.51 57.72 272.79C57.65 271.07 57.48 269.3 57.2 267.47C56.92 265.64 56.23 264.14 55.12 262.95C54.01 261.77 52.6 260.83 50.92 260.15C50.2 259.7 49.84 258.89 49.85 257.72C49.85 256.55 50.26 255.37 51.07 254.17C51.87 252.98 52.66 252.51 53.45 252.76C54.03 252.86 54.88 253.1 56.01 253.49C57.14 253.88 58 254.17 58.59 254.36L58.71 254.2L58.87 254.32C65.22 256.16 72.52 256.56 80.77 255.5C103.01 218.99 113.37 195.66 111.84 185.52C110.96 179.68 107.41 177.22 101.2 178.15C93.71 179.28 85.79 182.53 77.44 187.9C69.34 193.04 61.63 199.53 54.31 207.36C46.99 215.19 42.59 221.65 41.11 226.72C41.81 227.64 42.03 228.96 41.78 230.68C41.52 232.4 40.68 233.46 39.25 233.86C37.72 234.28 36.44 234.12 35.4 233.39C34.36 232.66 33.77 231.56 33.64 230.08C33.14 224.93 37.4 217.25 46.43 207.07C55.45 196.88 64.59 188.71 73.84 182.55C83.09 176.39 92.2 172.64 101.15 171.29C105.44 170.64 109.2 171.55 112.42 174C115.64 176.46 117.61 180.06 118.33 184.81C120.12 196.69 110.6 219.7 89.78 253.85C101.36 251.36 114.02 247.3 127.74 241.68C141.47 236.06 152.38 230.36 160.47 224.56C166.95 219.85 170.4 217.32 170.82 216.98C190.24 179.12 203.56 159.64 210.78 158.55C212.51 158.29 214.21 158.69 215.87 159.75C217.52 160.81 218.48 162.21 218.74 163.94H218.71ZM63.62 262.7C65.31 268.33 65.05 275.33 62.86 283.69L76.36 262.6C71.75 263.01 67.51 263.05 63.62 262.7ZM185.85 204.35C191.23 199.15 196.13 193.83 200.54 188.4C204.95 182.97 208.15 178.35 210.15 174.55C212.14 170.75 212.44 168.53 211.04 167.9C209.55 167.29 207.31 169.16 204.32 173.54C200.62 178.77 194.46 189.04 185.84 204.35H185.85Z" fill="white"/>
<path d="M245.05 233.68C245.9 232.52 246.55 232.75 246.98 234.37C247.56 236.99 247.05 239.45 245.43 241.75L245.08 242.22C245 242.33 244.05 243.59 242.22 246.01C240.39 248.43 238.5 250.96 236.56 253.59C234.62 256.22 232.23 259.24 229.38 262.66C226.53 266.08 223.91 269.11 221.51 271.76C219.11 274.41 216.74 276.73 214.43 278.71C212.11 280.69 210.32 281.78 209.04 281.97C207.49 282.2 205.87 281.54 204.19 279.97C202.5 278.4 201.54 276.8 201.29 275.15C200.49 269.85 202.39 262.28 206.98 252.43C194.26 268.45 186.16 276.72 182.69 277.25C181.05 277.5 179.36 276.89 177.65 275.42C175.94 273.95 174.9 272.03 174.54 269.65C173.96 265.81 175.89 259.87 180.33 251.82C184.77 243.77 189.93 236.38 195.83 229.66C201.73 222.93 206.37 219.31 209.75 218.8C212.3 218.42 214.85 218.71 217.38 219.68C219.91 220.65 221.76 221.94 222.93 223.54C225.56 219.31 227.71 216.51 229.37 215.14C230.61 214.11 232.36 214.5 234.59 216.32C236.51 217.9 236.96 219.04 235.95 219.76C235.87 219.87 235.74 219.93 235.56 219.96C233.96 220.48 230.58 224.89 225.43 233.19C220.28 241.49 215.75 249.99 211.83 258.71C207.91 267.43 206.79 272.41 208.48 273.65C210.07 274.9 215.22 270.37 223.94 260.04C232.66 249.71 239.7 240.92 245.05 233.67V233.68ZM181.44 269.05C182.76 270.35 188.39 265.39 198.33 254.17C208.27 242.96 214.77 234.83 217.85 229.79C217.35 228.93 216.38 228.07 214.94 227.22C213.5 226.37 212.1 226.04 210.73 226.24C207.62 226.71 203.44 230.23 198.17 236.82C192.91 243.41 188.5 250.12 184.95 256.96C181.4 263.8 180.24 267.83 181.45 269.05H181.44Z" fill="white"/>
<path d="M280.45 211.95C281.5 210.86 283.13 211.45 285.34 213.74C287.1 215.53 287.5 216.59 286.52 216.93C286.15 216.98 285.77 217.21 285.36 217.59C284.95 217.98 284.46 218.61 283.89 219.49C283.32 220.37 282.86 221.14 282.49 221.8C282.12 222.47 281.6 223.48 280.92 224.84C280.24 226.21 279.71 227.19 279.34 227.81C278.62 229.23 277.54 231.19 276.09 233.69C274.65 236.2 272.32 240.28 269.11 245.95C265.9 251.62 262.82 257.06 259.87 262.27C262.96 262.27 265.48 262.94 267.46 264.28C269.43 265.62 270.7 267.22 271.27 269.1C271.75 270.43 271.9 271.25 271.71 271.56C271.52 271.87 271.26 271.95 270.91 271.82C270.56 271.68 270.11 271.33 269.56 270.76C266.65 268.21 262.55 267.33 257.25 268.13L256.43 268.25L252.21 275.61C248.96 281.33 246.6 285.49 245.13 288.1C243.65 290.71 241.01 295.21 237.22 301.62C233.42 308.03 230.26 313.08 227.73 316.78C225.21 320.47 222.3 324.56 219 329.03C215.7 333.5 212.75 336.86 210.15 339.12C207.55 341.38 205.24 342.66 203.23 342.96C201.59 343.21 200.14 342.75 198.89 341.58C197.64 340.41 196.78 339.19 196.3 337.91C195.83 336.63 195.51 335.48 195.36 334.48C194.66 329.82 197.6 321.58 204.18 309.75C210.76 297.92 218.29 287.96 226.79 279.86C235.61 271.43 243.86 266.03 251.53 263.66C251.83 263.15 253.48 260.17 256.49 254.72C259.5 249.27 261.89 245.01 263.67 241.94C251.94 256.51 244.3 264.06 240.74 264.59C239.28 264.81 237.92 264.03 236.68 262.26C235.43 260.49 234.68 258.78 234.43 257.13C233.88 253.48 235.83 247.95 240.27 240.56C244.71 233.17 249.62 226.52 254.99 220.62C260.36 214.72 264.09 211.61 266.19 211.3C270.76 210.61 274.54 212.14 277.53 215.9C278.34 214.47 279.31 213.16 280.44 211.96L280.45 211.95ZM241.72 280.42L246.98 271.64C241.53 274.51 235.41 279.46 228.61 286.46C223.13 292.24 218.21 298.65 213.85 305.71C209.5 312.76 206.51 318.68 204.89 323.45C203.28 328.22 203.05 331.04 204.21 331.89C205.35 332.65 207.5 331.28 210.66 327.76C213.82 324.25 217.54 319.18 221.82 312.56C226.1 305.94 229.71 300.25 232.63 295.52C235.56 290.78 238.58 285.75 241.7 280.42H241.72ZM242.01 256.28C242.85 256.9 247.58 252.31 256.19 242.51C264.8 232.71 270.25 226.1 272.54 222.67C272.03 221.16 271.18 220.12 269.97 219.55C268.76 218.99 267.49 218.9 266.15 219.29C263.91 219.91 260.56 223.12 256.11 228.93C251.66 234.74 247.91 240.53 244.86 246.32C241.81 252.1 240.86 255.42 242.02 256.28H242.01Z" fill="white"/>
<path d="M293.85 262.76C292.21 263.01 290.55 262.28 288.9 260.56C287.24 258.85 286.26 256.99 285.95 254.98C285.41 251.42 286.07 246.97 287.94 241.65C289.8 236.32 292.14 231.26 294.96 226.44C301.85 215.13 306.01 208.66 307.45 207.04C308.25 206.17 308.97 205.69 309.61 205.59C311.53 205.3 312.99 206.3 313.99 208.58C314.75 210.52 314.64 211.66 313.66 211.99C312.47 212.17 309.84 215.49 305.77 221.94C301.7 228.39 298.18 235.11 295.22 242.1C292.25 249.09 291.61 253.2 293.3 254.44C294.88 255.6 298.65 252.91 304.62 246.36C310.59 239.81 317.22 231.59 324.52 221.71C325.68 220.13 326.34 220.13 326.48 221.7C326.77 224.27 326.24 226.97 324.89 229.79L324.33 230.71C323.55 231.76 322.06 233.76 319.84 236.71C317.62 239.66 316.01 241.8 314.99 243.12C313.97 244.44 312.48 246.3 310.51 248.7C308.53 251.1 306.96 252.93 305.8 254.17C304.63 255.42 303.27 256.77 301.72 258.22C300.16 259.67 298.74 260.75 297.44 261.46C296.14 262.17 294.95 262.61 293.85 262.77V262.76ZM320.65 195.1C319.84 195.32 319.16 195 318.61 194.15C318.06 193.3 317.91 192.43 318.15 191.56C318.86 188.84 320.87 185.15 324.19 180.49C327.5 175.84 330.02 173.33 331.75 172.98C333.01 172.7 334.19 172.89 335.27 173.57C336.35 174.25 337.04 175.22 337.32 176.48C337.55 177.38 334.96 180.69 329.57 186.41C324.18 192.13 321.2 195.03 320.65 195.11V195.1Z" fill="white"/>
<path d="M322.35 258.46C320.71 258.71 319.05 257.98 317.4 256.26C315.74 254.55 314.76 252.69 314.46 250.68C313.92 247.12 314.58 242.67 316.44 237.35C318.3 232.02 320.64 226.96 323.47 222.14C330.36 210.83 334.52 204.36 335.96 202.74C336.76 201.87 337.48 201.39 338.12 201.29C340.04 201 341.5 202 342.49 204.28C343.25 206.22 343.14 207.36 342.16 207.69C340.97 207.87 338.34 211.19 334.27 217.64C330.2 224.09 326.68 230.81 323.72 237.8C320.75 244.79 320.11 248.9 321.8 250.14C323.38 251.3 327.15 248.61 333.12 242.06C339.09 235.51 345.72 227.29 353.02 217.41C354.18 215.83 354.84 215.83 354.98 217.39C355.27 219.96 354.74 222.66 353.39 225.48L352.83 226.4C352.05 227.45 350.56 229.45 348.34 232.4C346.12 235.35 344.5 237.49 343.49 238.81C342.47 240.13 340.98 241.99 339.01 244.39C337.03 246.79 335.46 248.62 334.3 249.87C333.13 251.12 331.77 252.47 330.22 253.92C328.66 255.37 327.24 256.45 325.94 257.16C324.64 257.87 323.45 258.31 322.35 258.47V258.46ZM349.15 190.81C348.34 191.03 347.66 190.71 347.11 189.85C346.56 189 346.41 188.13 346.65 187.26C347.36 184.54 349.37 180.85 352.69 176.19C356 171.54 358.52 169.03 360.25 168.68C361.51 168.4 362.69 168.59 363.77 169.27C364.85 169.95 365.54 170.92 365.82 172.18C366.05 173.08 363.46 176.39 358.07 182.11C352.67 187.83 349.7 190.73 349.15 190.81ZM349.15 190.81C348.34 191.03 347.66 190.71 347.11 189.85C346.56 189 346.41 188.13 346.65 187.26C347.36 184.54 349.37 180.85 352.69 176.19C356 171.54 358.52 169.03 360.25 168.68C361.51 168.4 362.69 168.59 363.77 169.27C364.85 169.95 365.54 170.92 365.82 172.18C366.05 173.08 363.46 176.39 358.07 182.11C352.67 187.83 349.7 190.73 349.15 190.81Z" fill="white"/>
<path d="M484.43 102.88C490.46 101.97 496.24 103.32 501.78 106.92C507.32 110.52 510.66 116.07 511.78 123.56C512.8 130.32 511.03 140.16 506.49 153.08C501.95 166 495.55 179.67 487.31 194.08C479.06 208.49 470.09 222.41 460.39 235.83C450.69 249.25 440.59 260.63 430.08 269.96C419.58 279.3 410.39 284.56 402.54 285.74C397.33 286.53 392.63 285.34 388.41 282.19C384.2 279.04 381.68 274.73 380.86 269.25C379.51 260.3 381.19 249.58 385.89 237.1C390.59 224.62 397 212.73 405.11 201.42C409.54 186.18 416.44 171.08 425.82 156.12C435.2 141.16 445.21 128.87 455.85 119.23C466.49 109.59 476.02 104.14 484.43 102.87V102.88ZM400.45 278.36C406.75 277.41 413.95 273.59 422.05 266.91C430.15 260.23 438.1 252.04 445.89 242.37C453.68 232.7 461.33 221.97 468.85 210.18C476.37 198.4 482.89 187 488.43 175.98C493.96 164.97 498.33 154.73 501.53 145.28C504.73 135.83 506.05 128.67 505.51 123.8C505.03 118.74 503.13 115.12 499.81 112.96C496.5 110.8 491.96 110.15 486.21 111.02C476.07 112.55 464.58 120.47 451.75 134.78C438.91 149.09 428.18 165.45 419.56 183.84C428.1 175.46 435.55 170.6 441.89 169.27C445.24 168.58 447.77 168.94 449.48 170.37C451.19 171.8 452.18 173.38 452.44 175.11C452.73 177.03 451.69 178.17 449.31 178.52C448.76 178.6 447.89 178.36 446.68 177.8C444.91 177.22 443.66 176.99 442.93 177.1C439 177.69 434.15 180.66 428.37 186.02C422.59 191.38 416.81 198.13 411.04 206.29C406.96 220.17 405.66 232 407.14 241.77C408.16 248.53 411.87 251.8 418.28 251.58C419.48 251.49 420.29 251.6 420.71 251.91C421.13 252.22 421.42 252.88 421.57 253.88C421.94 256.35 419.84 257.92 415.28 258.61C412.63 259.01 409.8 257.92 406.8 255.33C403.8 252.75 401.9 248.85 401.12 243.65C400.09 236.8 399.99 229.67 400.84 222.25C390.21 240.95 385.69 255.64 387.31 266.33C388.04 271.17 389.43 274.53 391.49 276.42C393.54 278.31 396.54 278.95 400.47 278.36H400.45Z" fill="white"/>
<path d="M549.18 193.18C552.97 191.68 556.21 191.14 558.89 191.58C559.86 191.81 559.91 192.17 559.06 192.68C558.97 192.69 558.84 192.76 558.67 192.88C553.15 195.3 548.65 197.38 545.18 199.12C538.1 209.81 531.72 218.29 526.03 224.57C520.34 230.85 515.17 234.33 510.51 235.04C508.68 235.31 506.85 234.61 505.01 232.93C503.17 231.24 502.07 229.21 501.71 226.84C501.17 223.28 504.38 218.85 511.34 213.55C518.3 208.25 527.05 203.13 537.61 198.17C546.3 184.53 549.45 176.96 547.08 175.44C545.23 174.32 540.64 176.72 533.31 182.63C525.98 188.55 517.58 197.1 508.1 208.29C498.62 219.48 490.81 230.72 484.67 242.02C475.67 261.03 469.48 274.81 466.09 283.35C466.94 282.75 468.59 281.01 471.05 278.12C472.09 276.94 472.54 276.87 472.42 277.91C472.11 280.2 470.66 283.92 468.08 289.07C466.76 291.51 465.76 293.34 465.06 294.57C464.36 295.8 463.42 297.01 462.24 298.22C461.07 299.42 459.89 300.12 458.7 300.29C456.51 300.62 455.2 299.42 454.79 296.68C454.42 294.21 455.22 290.87 457.2 286.65C457.83 285.25 460.37 279.61 464.81 269.74C469.25 259.87 473.69 250.09 478.12 240.41C482.55 230.73 485.82 223.9 487.93 219.94C505.21 187.72 515.87 169.49 519.9 165.24C521.36 163.81 523.32 164.12 525.78 166.18C527.71 167.85 528.28 169.12 527.48 169.99C527.41 170.19 527.29 170.3 527.11 170.33C526.67 170.49 525.67 171.51 524.13 173.37C522.59 175.24 520.35 178.21 517.42 182.3C514.49 186.38 511.48 190.95 508.41 195.99C506.76 198.67 504.59 202.55 501.9 207.62C508.71 198.28 516.92 189.38 526.53 180.93C536.14 172.48 543.55 167.85 548.76 167.07C553.14 166.41 555.92 168.7 557.08 173.94C557.86 177.28 555.24 183.7 549.19 193.21L549.18 193.18ZM511.7 225.31C513.2 226.58 515.97 225.16 520.03 221.04C524.08 216.93 528.14 211.95 532.21 206.1C519.52 213.62 512.53 219.3 511.23 223.13C510.91 224.11 511.07 224.84 511.7 225.3V225.31Z" fill="white"/>
<path d="M606.6 179.061C607.3 178.111 607.74 178.241 607.92 179.421C608.26 182.271 607.15 185.801 604.61 190.011L602.28 193.161C592.88 204.571 585.59 212.591 580.4 217.201C575.21 221.811 570.82 224.291 567.23 224.651C564.84 224.921 562.61 224.041 560.53 222.021C558.45 220.001 557.26 217.661 556.95 214.991C556.37 209.941 558.26 203.091 562.61 194.451C566.96 185.811 572.11 178.141 578.06 171.451C584.01 164.761 588.87 161.181 592.62 160.711C594.46 160.531 596.24 161.031 597.96 162.221C599.68 163.411 600.64 164.971 600.84 166.901C601.26 170.951 597.85 176.531 590.61 183.651C583.37 190.771 575.37 196.901 566.62 202.051C563.31 209.831 562.78 214.681 565.03 216.581C570.06 220.871 583.92 208.361 606.6 179.071V179.061ZM587.32 178.041C591.59 173.851 592.99 171.211 591.52 170.121C590.05 169.031 587.37 170.631 583.48 174.901C579.59 179.181 575.8 184.541 572.1 190.981C577.97 186.551 583.04 182.231 587.31 178.041H587.32Z" fill="white"/>
<path d="M650.4 169.37C647.94 169.74 644.78 173.49 640.95 180.6C637.12 187.72 635.47 193.06 636 196.62C636.37 199.09 637.65 200.15 639.85 199.82C643.87 199.21 649.75 194.54 657.5 185.81C658.86 184.3 659.57 184.05 659.63 185.07C659.58 186.57 658.68 188.72 656.96 191.5C655.15 194.39 652.25 197.79 648.27 201.71C644.28 205.63 640.69 207.83 637.49 208.31C635.39 208.63 633.58 208.25 632.06 207.17C630.54 206.09 629.6 204.32 629.23 201.85C628.76 198.75 629.26 194.93 630.73 190.41C625.14 197.32 619.48 203.34 613.76 208.45C608.04 213.56 603.49 216.37 600.11 216.88C597.28 217.31 595.16 216.76 593.77 215.24C592.37 213.72 591.52 211.91 591.2 209.81C590.88 207.71 591.25 205.97 592.31 204.6C593.36 203.23 594.66 202.42 596.22 202.19C597.5 202 598.63 202.55 599.62 203.85C600.61 205.15 601.18 206.63 601.34 208.29C604.33 207.65 608.6 204.88 614.17 199.98C619.74 195.08 624.69 189.68 629.04 183.8C631.76 180.12 633.96 176.64 635.66 173.34C637.36 170.05 638.38 167.54 638.73 165.8C639.07 164.07 639.03 163 638.6 162.6C638.18 162.29 637.6 162.19 636.87 162.3C634.4 162.67 630.16 165.18 624.13 169.83C617.03 175.39 612.72 180.57 611.2 185.37C610.43 187.73 609.04 189.06 607.04 189.36C606.03 189.51 605.11 189.09 604.26 188.1C603.41 187.11 602.89 185.97 602.7 184.69C602.41 182.77 603.97 179.97 607.39 176.28C610.8 172.59 614.97 168.83 619.91 165C628.94 157.94 635.09 154.16 638.38 153.67C640.39 153.37 642.15 154.06 643.67 155.75C645.19 157.44 646.09 159.29 646.4 161.29C646.48 161.84 646.5 162.26 646.45 162.54C647.34 161.66 648.16 161.16 648.89 161.05C650.53 160.8 652.29 161.31 654.16 162.57C656.03 163.83 657.07 165.14 657.28 166.51C657.36 167.06 657.28 167.49 657.06 167.81C656.61 168.53 655.83 168.98 654.74 169.14C654.28 169.21 653.57 169.25 652.59 169.25C651.61 169.25 650.89 169.3 650.43 169.37H650.4Z" fill="white"/>
<path d="M719.35 150.86C720.37 150.15 720.92 150.11 721.02 150.75C721.2 151.94 719.83 153.73 716.93 156.13C716.84 156.14 716.75 156.21 716.68 156.31C711.16 160.6 704.91 163.17 697.95 164.04C696.94 164.19 695.5 164.22 693.62 164.13C690.89 171.45 685.4 181.32 677.13 193.73C668.86 206.14 662.7 212.51 658.64 212.84C657.35 212.94 655.92 212.46 654.36 211.38C652.8 210.31 651.9 208.71 651.68 206.6C651.45 204.49 653.86 198.29 658.89 188C663.93 177.71 669.63 167.68 676 157.89C682.37 148.1 686.88 143.01 689.53 142.61C691.63 142.29 693.33 143.07 694.64 144.92C695.59 146.27 695.47 147.04 694.29 147.22C693.1 147.4 691.73 148.21 690.17 149.66C692.78 150.86 694.19 153.73 694.41 158.27C696.11 158.39 697.51 158.36 698.61 158.2C701.45 157.87 705.14 156.89 709.66 155.27C714.18 153.66 717.41 152.19 719.36 150.87L719.35 150.86ZM661.35 201.07C662.4 201.85 665.06 199.37 669.34 193.63C673.61 187.89 677.64 181.61 681.43 174.78C685.21 167.95 686.96 163.58 686.67 161.66L686.55 160.84C685.58 159.96 684.68 158.97 683.86 157.88C678.81 165.93 673.51 174.92 667.96 184.87C662.4 194.81 660.21 200.21 661.37 201.07H661.35Z" fill="white"/>
<path d="M787.83 65.0101C789.38 64.7801 790.78 65.3901 792.03 66.8301C793.28 68.2801 794.04 69.9101 794.31 71.7401C794.87 75.4901 791.39 82.4101 783.85 92.5201C776.31 102.62 767.92 112.67 758.69 122.65C753.14 128.62 742.76 139.06 727.53 153.97C730.22 153.19 732.34 152.69 733.89 152.45C737.18 151.95 739.69 152.23 741.44 153.27C742.25 153.71 742.18 154.19 741.23 154.7C740.8 154.95 738.87 155.62 735.44 156.7C732.01 157.78 728.94 158.99 726.25 160.33C726.16 165.3 724.97 171.2 722.68 178.03C720.39 184.87 717.35 191 713.54 196.43C709.73 201.86 706.05 204.85 702.49 205.38C698.38 206 695.98 204.03 695.29 199.46C695.21 198.91 695.2 198.26 695.27 197.5C695.34 196.74 695.58 195.82 695.98 194.73C696.38 193.64 696.76 192.61 697.12 191.61C697.49 190.62 698.08 189.29 698.9 187.63C699.72 185.96 700.44 184.5 701.04 183.24C701.64 181.98 702.57 180.23 703.82 177.99C705.07 175.75 706.11 173.84 706.95 172.26C707.78 170.69 708.99 168.45 710.56 165.55C712.13 162.65 713.47 160.23 714.58 158.29C718.02 151.98 722.9 143.93 729.23 134.15C735.55 124.37 742.4 114.32 749.77 104.01C757.14 93.7001 764.38 84.7601 771.51 77.1901C778.64 69.6301 784.07 65.5601 787.82 64.9901L787.83 65.0101ZM703.33 196.99C705 197.58 707.17 195.85 709.83 191.81C712.49 187.77 714.79 182.77 716.75 176.82C718.7 170.87 719.51 165.83 719.16 161.67C716.95 164.99 713.51 171.63 708.85 181.58C704.18 191.53 702.34 196.67 703.32 196.98L703.33 196.99ZM732.77 140.43C740.51 132.91 751.05 121.31 764.37 105.61C777.7 89.9201 783.54 81.5901 781.9 80.6201C777.67 77.9901 761.29 97.9301 732.76 140.43H732.77Z" fill="white"/>
<path d="M743.36 200.49C741.8 200.72 740.26 200.05 738.71 198.46C737.16 196.87 736.27 195.3 736.04 193.75C735.54 190.46 736.33 185.74 738.39 179.59C740.45 173.44 743.37 167.37 747.14 161.39C751.74 154.07 756.34 147.88 760.95 142.84C765.56 137.8 769.77 134.86 773.56 134C776 133.45 778.16 133.68 780.04 134.7C781.92 135.73 783.04 137.38 783.38 139.66C783.78 142.31 783.1 145.24 781.34 148.44C779.58 151.65 777.69 153.4 775.68 153.7C772.94 154.11 771.33 153.66 770.85 152.33C770.68 151.8 770.88 151.3 771.47 150.84C772.53 149.84 773.55 148.1 774.54 145.61C775.52 143.13 775.51 141.68 774.52 141.27C771.89 139.98 765.31 147.42 754.76 163.58C751.28 168.96 748.43 174.3 746.24 179.58C744.05 184.86 743.11 188.56 743.42 190.66C743.6 191.85 744.1 192.38 744.92 192.25C746.47 192.02 749.27 190.4 753.3 187.42C757.33 184.43 761.03 181.42 764.41 178.39C768.86 174.45 771.63 172.07 772.72 171.25C773.65 170.65 773.82 170.85 773.23 171.87C773.09 172.17 772.71 172.79 772.1 173.72C768.46 179.31 763.65 185.04 757.66 190.89C751.68 196.74 746.9 199.94 743.34 200.47L743.36 200.49Z" fill="white"/>
<path d="M808.47 126.64C809.93 126.42 811.27 127.25 812.48 129.12C813.13 130.33 813.14 131.03 812.52 131.22C811.42 131.39 808.92 134.31 805.01 139.99C801.1 145.67 798.05 150.83 795.85 155.45C798.21 156.22 799.22 158.42 798.88 162.07C798.54 165.72 797.1 169.93 794.55 174.7C789.53 184.14 785 189.17 780.99 189.77C778.25 190.18 776.66 188.93 776.22 186.01C775.67 182.36 778.44 174.74 784.55 163.18C782.78 161.39 782.42 159.58 783.45 157.74C784.34 156.2 786.17 155.32 788.94 155.09C789.07 154.7 789.37 154.18 789.83 153.55C790.3 152.92 790.59 152.41 790.72 152.01C800.64 135.38 806.56 126.92 808.48 126.63L808.47 126.64ZM783.94 178.68C784.93 179.09 786.75 177.02 789.38 172.47C792.01 167.92 792.75 165.26 791.61 164.5C791.09 164.11 790.14 165.07 788.76 167.38C787.38 169.69 786.16 172.12 785.09 174.66C784.02 177.2 783.64 178.54 783.95 178.68H783.94Z" fill="white"/>
<path d="M860.68 157.02C862.16 156.33 863.27 155.93 864 155.82C864.73 155.71 865.14 155.77 865.22 155.99C865.3 156.21 865.2 156.62 864.92 157.23C864.64 157.83 864.32 158.35 863.96 158.77C863.61 159.2 863.19 159.68 862.71 160.22C861.12 162.05 856.54 165.45 848.97 170.42C841.4 175.39 835.43 178.2 831.05 178.87C828.12 179.31 825.56 178.7 823.34 177.02C821.13 175.35 819.44 173.15 818.28 170.43C815.66 174.75 813.91 178 813.02 180.19C811.92 182.78 811.52 185.09 811.82 187.1C812.08 188.83 811.34 189.83 809.6 190.09C808.33 190.28 807.14 189.85 806.05 188.81C804.96 187.76 804.28 186.37 804.02 184.63C803.72 182.62 807.79 174.11 816.22 159.11C824.65 144.11 831.65 132.08 837.19 123.02C837.82 121.62 839.3 121.49 841.62 122.63C843.76 123.8 844.4 124.97 843.55 126.12C842.77 127.17 841.89 128.45 840.9 129.95C839.91 131.46 838.41 133.9 836.4 137.28C834.39 140.67 832.93 143.08 832.03 144.52C834.84 141.48 838.96 137.66 844.39 133.06C849.82 128.46 853.26 126.05 854.72 125.83C856.27 125.6 857.53 126.53 858.5 128.62C859.27 130.65 859.04 131.9 857.8 132.37C854.33 132.89 848.22 137.65 839.49 146.62C835.12 151.11 831.66 155.44 829.11 159.6C826.56 163.77 825.44 166.86 825.74 168.87C826.01 170.7 827.38 171.42 829.85 171.05C833.23 170.54 836.8 169.44 840.56 167.76C844.32 166.07 848.29 164.03 852.46 161.62C856.63 159.22 859.36 157.69 860.67 157.02H860.68Z" fill="white"/>
<path d="M919.8 120.65C920.82 119.94 921.37 119.9 921.47 120.54C921.65 121.73 920.29 123.52 917.38 125.92C917.29 125.93 917.2 126 917.13 126.1C911.61 130.39 905.37 132.96 898.4 133.83C897.39 133.98 895.95 134.01 894.07 133.92C891.34 141.25 885.85 151.11 877.58 163.52C869.31 175.93 863.15 182.3 859.09 182.63C857.8 182.73 856.37 182.25 854.81 181.17C853.25 180.1 852.35 178.5 852.13 176.39C851.9 174.28 854.31 168.08 859.34 157.79C864.38 147.5 870.08 137.47 876.45 127.68C882.82 117.89 887.33 112.8 889.98 112.4C892.08 112.08 893.78 112.86 895.09 114.71C896.04 116.06 895.92 116.83 894.74 117.01C893.55 117.19 892.18 118 890.62 119.45C893.23 120.65 894.64 123.52 894.86 128.06C896.56 128.18 897.96 128.15 899.05 127.99C901.9 127.66 905.58 126.68 910.1 125.06C914.62 123.45 917.86 121.98 919.81 120.66L919.8 120.65ZM861.79 170.87C862.84 171.65 865.5 169.17 869.77 163.43C874.04 157.69 878.07 151.41 881.86 144.58C885.64 137.75 887.39 133.38 887.1 131.46L886.98 130.64C886.01 129.76 885.11 128.77 884.29 127.68C879.24 135.73 873.94 144.72 868.39 154.67C862.83 164.62 860.64 170.02 861.8 170.87H861.79Z" fill="white"/>
<path d="M907.93 170.22C906.29 170.47 904.64 169.74 902.98 168.02C901.32 166.31 900.34 164.45 900.04 162.44C899.5 158.88 900.16 154.43 902.02 149.11C903.88 143.78 906.22 138.72 909.05 133.9C915.94 122.59 920.1 116.12 921.54 114.5C922.34 113.63 923.06 113.15 923.7 113.05C925.62 112.76 927.08 113.76 928.07 116.03C928.83 117.97 928.72 119.11 927.74 119.44C926.55 119.62 923.92 122.94 919.85 129.39C915.78 135.84 912.26 142.56 909.3 149.55C906.33 156.54 905.69 160.65 907.38 161.89C908.96 163.05 912.73 160.36 918.7 153.81C924.67 147.26 931.3 139.04 938.6 129.16C939.76 127.58 940.42 127.58 940.56 129.15C940.85 131.72 940.32 134.42 938.97 137.23L938.41 138.16C937.63 139.21 936.14 141.21 933.92 144.16C931.7 147.11 930.09 149.25 929.07 150.57C928.05 151.89 926.56 153.75 924.59 156.15C922.62 158.55 921.04 160.38 919.88 161.62C918.71 162.87 917.35 164.22 915.8 165.67C914.24 167.12 912.82 168.2 911.52 168.91C910.22 169.62 909.03 170.06 907.93 170.22ZM934.73 102.57C933.92 102.79 933.24 102.47 932.69 101.61C932.14 100.76 931.99 99.9 932.23 99.02C932.94 96.3 934.95 92.61 938.27 87.95C941.58 83.3 944.1 80.79 945.83 80.44C947.09 80.16 948.27 80.35 949.35 81.03C950.43 81.71 951.12 82.68 951.4 83.94C951.63 84.84 949.04 88.15 943.65 93.87C938.25 99.59 935.28 102.49 934.73 102.57Z" fill="white"/>
<path d="M918.47 97.2104C917.66 97.4304 916.98 97.1104 916.43 96.2604C915.88 95.4104 915.73 94.5404 915.97 93.6704C916.68 90.9504 918.7 87.2604 922.01 82.6004C925.33 77.9504 927.84 75.4404 929.57 75.0904C930.84 74.8104 932.01 75.0004 933.09 75.6804C934.18 76.3604 934.86 77.3304 935.14 78.5904C935.37 79.4904 932.78 82.8004 927.39 88.5204C921.99 94.2404 919.02 97.1404 918.47 97.2204V97.2104Z" fill="white"/>
</g>
<defs>
<filter id="filter0_d_1799_1061" x="0.600586" y="0.44043" width="997.813" height="393.124" filterUnits="userSpaceOnUse" color-interpolation-filters="sRGB">
<feFlood flood-opacity="0" result="BackgroundImageFix"/>
<feColorMatrix in="SourceAlpha" type="matrix" values="0 0 0 0 0 0 0 0 0 0 0 0 0 0 0 0 0 0 127 0" result="hardAlpha"/>
<feOffset dx="7" dy="7"/>
<feGaussianBlur stdDeviation="20"/>
<feColorMatrix type="matrix" values="0 0 0 0 0 0 0 0 0 0 0 0 0 0 0 0 0 0 0.5 0"/>
<feBlend mode="normal" in2="BackgroundImageFix" result="effect1_dropShadow_1799_1061"/>
<feBlend mode="normal" in="SourceGraphic" in2="effect1_dropShadow_1799_1061" result="shape"/>
</filter>
</defs>
</svg>
