<svg width="287" height="54" viewBox="0 0 287 54" fill="none" xmlns="http://www.w3.org/2000/svg">
<path d="M71.3815 46.4402C67.9417 44.6242 65.2182 42.0472 63.195 38.7253C61.187 35.403 60.1752 31.5225 60.1752 27.0983C60.1752 22.6741 61.1717 18.7932 63.195 15.4713C65.2182 12.1341 67.9417 9.57241 71.3815 7.75648C74.8214 5.94012 78.6036 5.03975 82.7436 5.03975C86.8836 5.03975 90.6654 5.94012 94.1057 7.75648C97.5451 9.57241 100.253 12.1495 102.245 15.4713C104.238 18.809 105.234 22.6741 105.234 27.0983C105.234 31.5225 104.238 35.403 102.245 38.7253C100.253 42.0625 97.5451 44.6242 94.1057 46.4402C90.6654 48.2566 86.8836 49.1568 82.7436 49.1568C78.6036 49.1568 74.8214 48.2566 71.3815 46.4402ZM107.132 41.0379C109.638 36.9554 110.899 32.3138 110.899 27.0983C110.899 21.8823 109.654 17.2253 107.132 13.1582C104.627 9.09156 101.218 5.90896 96.9383 3.62738C92.658 1.34503 87.9265 0.196591 82.7436 0.196591C77.5606 0.196591 72.8292 1.34503 68.5489 3.62738C64.2691 5.90896 60.8757 9.09156 58.3544 13.1582C55.8488 17.2412 54.5879 21.8823 54.5879 27.0983C54.5879 32.3138 55.833 36.9708 58.3544 41.0379C60.8604 45.1055 64.2691 48.2877 68.5489 50.5697C72.8292 52.8511 77.5606 54 82.7436 54C87.9265 54 92.658 52.8511 96.9383 50.5697C101.218 48.2877 104.611 45.1055 107.132 41.0379Z" fill="white"/>
<path d="M150.169 49.2692H123.409V0.0108212H117.939V54H150.169V49.2692Z" fill="white"/>
<path d="M246.253 33.3135V33.3012C248.603 32.2719 250.626 30.8787 252.335 29.1089V15.6167H239.366V19.2816H248.728V28.0044C247.409 29.1969 245.901 30.1129 244.192 30.7531C242.483 31.3933 240.699 31.7196 238.839 31.7196C236.175 31.7196 233.736 31.1298 231.513 29.9625C229.301 28.7954 227.542 27.1259 226.235 24.9798C224.94 22.8209 224.286 20.3232 224.286 17.4617C224.286 14.5999 224.927 12.09 226.235 9.9434C227.529 7.79729 229.288 6.12819 231.513 4.96106C233.724 3.79337 236.175 3.20352 238.839 3.20352C241.05 3.20352 243.123 3.64304 245.058 4.52153C246.982 5.41239 248.628 6.61768 249.973 8.16115L252.335 5.80194C250.626 4.03205 248.603 2.63891 246.253 1.60965C243.904 0.580376 241.427 0.0657416 238.827 0.0657416C235.483 0.0657416 232.43 0.80637 229.665 2.28741C226.901 3.75576 224.701 5.8143 223.08 8.4499C221.459 11.0858 220.643 14.0853 220.643 17.4617C220.643 20.8379 221.459 23.8378 223.08 26.4733C224.701 29.1089 226.901 31.155 229.665 32.6358C232.43 34.1169 235.483 34.8574 238.827 34.8574C241.427 34.8574 243.904 34.3428 246.253 33.3135Z" fill="white"/>
<path d="M281.762 18.7344V15.5103H267.876V18.7344H281.762Z" fill="white"/>
<path d="M286.322 34.791V31.3077H264.66V3.2213H286.322V-0.00317477H260.94V34.791H286.322Z" fill="white"/>
<path d="M56.4406 0.196591H50.1869L28.5088 42.3764L6.75303 0.196591H0.499756L28.5088 54L31.8902 47.5288L56.4406 0.196591Z" fill="white"/>
<path d="M219.3 34.8047L201.138 0.0103884L198.942 4.20564L183.028 34.8047H187.084L201.151 7.52075L215.257 34.8047H219.3Z" fill="white"/>
<path d="M141.15 34.791V7.0412L155.928 27.5785L170.653 7.0412V34.791H174.542V-0.00317477H170.976L155.928 21.1688L140.943 -0.00317477H137.223V34.791H141.15Z" fill="white"/>
<path d="M187.254 47.2308C187.254 45.6596 185.966 44.8874 184.863 44.8874C183.762 44.8874 182.473 45.6463 182.473 47.2308C182.473 48.8153 183.762 49.5742 184.863 49.5742C185.966 49.5742 187.254 48.8016 187.254 47.2308Z" fill="white"/>
<path d="M175.589 45.9527C175.589 45.4736 175.244 44.9811 174.566 44.9811H172.295V46.9248H174.566V46.9116C175.244 46.9116 175.589 46.4319 175.589 45.9527Z" fill="white"/>
<path d="M243.403 47.2308C243.403 48.8153 244.691 49.5742 245.794 49.5742C246.896 49.5742 248.185 48.8016 248.185 47.2308C248.185 45.6596 246.896 44.8874 245.794 44.8874C244.691 44.8874 243.403 45.6463 243.403 47.2308Z" fill="white"/>
<path d="M164.99 46.0865C164.99 45.5407 164.658 44.9817 164.021 44.9817H161.949V47.1914H164.021C164.671 47.1914 164.99 46.6323 164.99 46.0865Z" fill="white"/>
<path d="M267.893 48.4561H270.895L269.394 45.2738L267.893 48.4561Z" fill="white"/>
<path d="M224.903 49.6282L225.487 48.8022C225.978 49.3347 227.081 49.6811 227.97 49.6811C228.794 49.6811 229.551 49.3749 229.551 48.6958C229.551 47.1647 225.168 48.3631 225.168 45.8335C225.168 44.4356 226.417 43.8894 227.772 43.8894C228.847 43.8894 229.99 44.249 230.614 44.7948L230.056 45.6336C229.564 45.1544 228.582 44.8482 227.772 44.8482C226.962 44.8482 226.271 45.128 226.271 45.8472C226.271 47.298 230.667 46.1265 230.667 48.6826C230.667 50.054 229.299 50.6267 227.864 50.6267C226.708 50.6267 225.5 50.2534 224.903 49.6282ZM214.145 49.6282L214.729 48.8022C215.22 49.3347 216.323 49.6811 217.213 49.6811C218.037 49.6811 218.793 49.3749 218.793 48.6958C218.793 47.1647 214.41 48.3631 214.41 45.8335C214.41 44.4356 215.658 43.8894 217.014 43.8894C218.089 43.8894 219.231 44.249 219.855 44.7948L219.297 45.6336C218.806 45.1544 217.824 44.8482 217.014 44.8482C216.203 44.8482 215.513 45.128 215.513 45.8472C215.513 47.298 219.909 46.1265 219.909 48.6826C219.909 50.054 218.541 50.6267 217.107 50.6267C215.951 50.6267 214.742 50.2534 214.145 49.6282ZM198.881 44.9678H194.671V47.0981H198.296V48.0168H194.671V50.4136H193.621V44.0363L193.635 44.0491H198.881V44.9678ZM204.983 46.7654H208.622V47.6841H204.983V49.4949H209.246V50.4136H203.933V44.0491H209.194V44.9678H204.983V46.7654ZM181.41 47.2446C181.41 44.9947 183.269 43.8894 184.863 43.8894C186.457 43.8894 188.317 44.9947 188.317 47.2446C188.317 49.4949 186.457 50.5998 184.863 50.5998C183.269 50.5998 181.41 49.4949 181.41 47.2446ZM171.245 50.4136V44.0363H174.738C176.027 44.0363 176.678 44.9815 176.678 45.9266C176.678 46.712 176.226 47.4842 175.35 47.737L177.301 50.4003H176L174.216 47.8438H172.295V50.4136H171.245ZM160.913 50.4136V44.0491H164.101C165.389 44.0491 166.039 45.0746 166.039 46.0727C166.039 47.0716 165.389 48.1099 164.101 48.1099H161.962V50.4136H160.913ZM237.014 50.4268H235.965V44.0496H237.014V50.4268ZM249.247 47.2446C249.247 49.4949 247.388 50.5998 245.794 50.5998C244.2 50.5998 242.341 49.4949 242.341 47.2446C242.341 44.9947 244.2 43.8894 245.794 43.8894C247.388 43.8894 249.247 44.9947 249.247 47.2446ZM269.912 43.956L272.927 50.4131H271.825L271.32 49.3612H267.442L266.95 50.4131H265.848L268.876 43.956H269.912ZM279.01 44.0491V49.4949H283.167V50.4136H277.96V44.0491H279.01ZM255.624 50.4268H254.575V44.0496H255.624L259.782 48.9756V44.0496H260.831V50.4268H259.782L255.624 45.4876V50.4268ZM286.502 53.8008V40.0716H156.097V53.8008H286.502Z" fill="white"/>
</svg>
