<?xml version="1.0" encoding="UTF-8"?>
<svg id="_Слой_1" data-name="Слой 1" xmlns="http://www.w3.org/2000/svg" xmlns:xlink="http://www.w3.org/1999/xlink" viewBox="0 0 1075 446">
  <defs>
    <style>
      .cls-1 {
        fill: #fff;
      }

      .cls-2 {
        filter: url(#drop-shadow-1);
      }
    </style>
    <filter id="drop-shadow-1" x="25" y="13" width="1039" height="434" filterUnits="userSpaceOnUse">
      <feOffset dx="7" dy="7"/>
      <feGaussianBlur result="blur" stdDeviation="20"/>
      <feFlood flood-color="#000" flood-opacity=".5"/>
      <feComposite in2="blur" operator="in"/>
      <feComposite in="SourceGraphic"/>
    </filter>
  </defs>
  <g class="cls-2">
    <g>
      <path class="cls-1" d="M377.85,66.44l-7.04,40.07h-4.01l5.9-33.72-17.86,23.18h-.57l-10.07-23.81-6.01,34.35h-4.01l7.04-40.07h4.69l9.5,22.56,17.41-22.56h5.04Z"/>
      <path class="cls-1" d="M409.16,77.89h3.78l-5.04,28.62h-3.78l.86-4.87c-3.09,3.7-7.23,5.55-12.42,5.55-4.01,0-7.23-1.55-9.67-4.64-2.44-3.09-3.3-6.74-2.58-10.93.8-4.58,2.78-8.13,5.93-10.65,3.15-2.52,6.63-3.78,10.45-3.78,2.48,0,4.75.58,6.81,1.75,2.06,1.16,3.59,2.83,4.58,5.01l1.09-6.07ZM393.48,103.54c3.13,0,5.93-1,8.41-3s4.03-4.55,4.64-7.64l.11-.69c.53-3.51-.18-6.28-2.15-8.3-1.97-2.02-4.48-3.04-7.53-3.04s-5.72.97-8.22,2.92-4.06,4.66-4.67,8.13c-.53,3.21.1,5.95,1.89,8.22,1.79,2.27,4.29,3.41,7.5,3.41Z"/>
      <path class="cls-1" d="M441.79,77.89h3.21l-5.04,28.62h-3.78l3.78-21.75-20.84,21.75h-3.21l5.04-28.62h3.78l-3.84,21.75,20.9-21.75ZM426.34,73.31l.57-3.32h14.88l-.57,3.32h-14.89Z"/>
      <path class="cls-1" d="M461.26,107.2c-4.16,0-7.45-1.54-9.88-4.61-2.42-3.07-3.25-6.75-2.49-11.02.72-4.2,2.73-7.64,6.01-10.33,3.28-2.69,7.06-4.04,11.34-4.04,2.78,0,5.23.67,7.33,2s3.55,3.15,4.35,5.44l-3.26,1.66c-.61-1.68-1.68-3-3.21-3.98s-3.38-1.46-5.55-1.46c-3.24,0-6.12,1.06-8.61,3.18-2.5,2.12-4.04,4.76-4.61,7.93-.53,3.24.06,5.98,1.78,8.21s4.2,3.35,7.44,3.35c2.18,0,4.19-.51,6.04-1.54,1.85-1.03,3.33-2.42,4.44-4.18l3.04,2c-1.45,2.33-3.42,4.14-5.9,5.44-2.48,1.3-5.23,1.95-8.24,1.95Z"/>
      <path class="cls-1" d="M504.71,77.89l-.63,3.66h-10.13l-4.41,24.96h-3.78l4.41-24.96h-10.13l.63-3.66h24.04Z"/>
      <path class="cls-1" d="M521.03,77.21c4.31,0,7.61,1.49,9.88,4.47,2.27,2.98,2.98,6.53,2.15,10.65-.11.69-.27,1.28-.46,1.77h-25.02c-.11,2.9.7,5.2,2.43,6.9,1.74,1.7,4.11,2.55,7.13,2.55,4.39,0,7.77-1.64,10.13-4.92l2.98,1.95c-1.37,2.1-3.31,3.73-5.81,4.9-2.5,1.16-5.11,1.75-7.82,1.75-4.43,0-7.82-1.49-10.19-4.47s-3.17-6.68-2.4-11.11c.72-4.2,2.7-7.65,5.93-10.36,3.22-2.71,6.92-4.06,11.08-4.06ZM508.15,90.43h21.3c.23-3.13-.46-5.51-2.06-7.13-1.6-1.62-3.8-2.43-6.58-2.43-3.02,0-5.66.87-7.93,2.61s-3.85,4.06-4.72,6.96Z"/>
      <path class="cls-1" d="M556.92,77.21c4.01,0,7.23,1.55,9.67,4.64,2.44,3.09,3.3,6.74,2.58,10.93-.8,4.58-2.78,8.13-5.92,10.65-3.15,2.52-6.63,3.78-10.45,3.78-2.48,0-4.75-.58-6.81-1.75s-3.59-2.83-4.58-5.01l-3.09,17.52h-3.78l7.04-40.07h3.78l-.86,4.87c3.09-3.7,7.23-5.55,12.42-5.55ZM565.39,92.49c.54-3.21-.1-5.94-1.89-8.21-1.79-2.27-4.29-3.41-7.5-3.41s-5.93,1-8.39,3.01c-2.46,2-4.02,4.53-4.67,7.59l-.11.92c-.5,3.47.23,6.2,2.18,8.19,1.95,1.99,4.45,2.98,7.5,2.98s5.71-.97,8.21-2.92c2.5-1.95,4.06-4.66,4.67-8.13Z"/>
      <path class="cls-1" d="M576.44,90.66l.63-3.66h20.61l-.63,3.66h-20.61Z"/>
      <path class="cls-1" d="M626.19,77.89l-.63,3.66h-14.54l-4.41,24.96h-3.78l5.04-28.62h18.32Z"/>
      <path class="cls-1" d="M645.83,77.21c4.01,0,7.23,1.55,9.67,4.64,2.44,3.09,3.3,6.74,2.58,10.93-.8,4.58-2.78,8.13-5.92,10.65-3.15,2.52-6.63,3.78-10.45,3.78-2.48,0-4.75-.58-6.81-1.75s-3.59-2.83-4.58-5.01l-3.09,17.52h-3.78l7.04-40.07h3.78l-.86,4.87c3.09-3.7,7.23-5.55,12.42-5.55ZM654.3,92.49c.54-3.21-.1-5.94-1.89-8.21-1.79-2.27-4.29-3.41-7.5-3.41s-5.93,1-8.39,3.01c-2.46,2-4.02,4.53-4.67,7.59l-.11.92c-.5,3.47.23,6.2,2.18,8.19,1.95,1.99,4.45,2.98,7.5,2.98s5.71-.97,8.21-2.92c2.5-1.95,4.06-4.66,4.67-8.13Z"/>
      <path class="cls-1" d="M686.24,77.89h4.23l-17.75,31.26c-1.72,3.01-3.7,5.29-5.95,6.81-2.25,1.53-4.64,2.19-7.16,2l.63-3.55c3.17.34,6.05-1.64,8.64-5.95l1.2-2-7.67-28.57h3.84l6.35,24.33,13.62-24.33Z"/>
      <path class="cls-1" d="M719.1,77.89l-5.04,28.62h-3.78l4.41-24.96h-16.49l-4.41,24.96h-3.78l5.04-28.62h24.04Z"/>
      <path class="cls-1" d="M751.85,77.89h3.78l-5.04,28.62h-3.78l.86-4.87c-3.09,3.7-7.23,5.55-12.42,5.55-4.01,0-7.23-1.55-9.67-4.64-2.44-3.09-3.3-6.74-2.58-10.93.8-4.58,2.78-8.13,5.93-10.65,3.15-2.52,6.63-3.78,10.45-3.78,2.48,0,4.75.58,6.81,1.75,2.06,1.16,3.59,2.83,4.58,5.01l1.09-6.07ZM736.16,103.54c3.13,0,5.93-1,8.41-3s4.03-4.55,4.64-7.64l.11-.69c.53-3.51-.18-6.28-2.15-8.3-1.97-2.02-4.48-3.04-7.53-3.04s-5.72.97-8.22,2.92-4.06,4.66-4.67,8.13c-.53,3.21.1,5.95,1.89,8.22,1.79,2.27,4.29,3.41,7.5,3.41Z"/>
    </g>
    <g>
      <path class="cls-1" d="M263.71,196.94c1.03,6.85-2.48,15.62-10.53,26.32-8.06,10.7-18.68,21.29-31.86,31.78l-8.2,16.23-33.54,70.35c1.23-1.78,2.83-4.3,4.81-7.59,1.98-3.29,3.4-5.46,4.27-6.53,1.5-1.81,2.41-1.95,2.74-.41.3,1.36.05,2.84-.73,4.46-1.15,2.32-3.41,7.71-6.81,16.16-3.4,8.45-6.49,15.83-9.28,22.14-2.79,6.31-4.64,9.53-5.55,9.66-.82.12-1.54.04-2.14-.24-.61-.28-1.03-.61-1.27-1-.24-.38-.59-.99-1.04-1.8-.45-.82-.75-1.36-.88-1.62-1.39-2.41-1.13-6.84.8-13.29.25-.79.64-1.97,1.15-3.54.11-.49.2-.83.27-1.02,1.31-4.31,3.53-10.04,6.66-17.19,3.12-7.15,5.93-13.34,8.41-18.57,2.48-5.23,6.47-13.47,11.97-24.71,5.5-11.24,9.25-18.93,11.24-23.06,2.57-5.24,4-8.17,4.28-8.77-9.39,6.46-21.85,12.57-37.39,18.32-15.53,5.75-29.22,9.61-41.06,11.58l-33.02,50.52c-1.37,2.07-3.22,2.82-5.55,2.24-1.95-.55-2.64-1.71-2.06-3.47.14-.3.33-.61.56-.93,1.62-3.52,2.8-6.12,3.52-7.82.73-1.7,1.79-4.24,3.2-7.63s2.39-6.01,2.95-7.87c.56-1.86,1.23-4.2,2.02-7.03.79-2.83,1.15-5.1,1.07-6.82-.07-1.72-.24-3.49-.52-5.32s-.97-3.33-2.08-4.52c-1.11-1.18-2.52-2.12-4.2-2.8-.72-.45-1.08-1.26-1.07-2.43,0-1.17.41-2.35,1.22-3.55.8-1.19,1.59-1.66,2.38-1.41.58.1,1.43.34,2.56.73,1.13.39,1.99.68,2.58.87l.12-.16.16.12c6.35,1.84,13.65,2.24,21.9,1.18,22.24-36.51,32.6-59.84,31.07-69.98-.88-5.84-4.43-8.3-10.64-7.37-7.49,1.13-15.41,4.38-23.76,9.75-8.1,5.14-15.81,11.63-23.13,19.46-7.32,7.83-11.72,14.29-13.2,19.36.7.92.92,2.24.67,3.96-.26,1.72-1.1,2.78-2.53,3.18-1.53.42-2.81.26-3.85-.47-1.04-.73-1.63-1.83-1.76-3.31-.5-5.15,3.76-12.83,12.79-23.01,9.02-10.19,18.16-18.36,27.41-24.52,9.25-6.16,18.36-9.91,27.31-11.26,4.29-.65,8.05.26,11.27,2.71,3.22,2.46,5.19,6.06,5.91,10.81,1.79,11.88-7.73,34.89-28.55,69.04,11.58-2.49,24.24-6.55,37.96-12.17,13.73-5.62,24.64-11.32,32.73-17.12,6.48-4.71,9.93-7.24,10.35-7.58,19.42-37.86,32.74-57.34,39.96-58.43,1.73-.26,3.43.14,5.09,1.2,1.65,1.06,2.61,2.46,2.87,4.19ZM108.62,295.7c1.69,5.63,1.43,12.63-.76,20.99l13.5-21.09c-4.61.41-8.85.45-12.74.1ZM230.85,237.35c5.38-5.2,10.28-10.52,14.69-15.95,4.41-5.43,7.61-10.05,9.61-13.85,1.99-3.8,2.29-6.02.89-6.65-1.49-.61-3.73,1.26-6.72,5.64-3.7,5.23-9.86,15.5-18.48,30.81Z"/>
      <path class="cls-1" d="M290.05,266.68c.85-1.16,1.5-.93,1.93.69.58,2.62.07,5.08-1.55,7.38l-.35.47c-.08.11-1.03,1.37-2.86,3.79-1.83,2.42-3.72,4.95-5.66,7.58-1.94,2.63-4.33,5.65-7.18,9.07-2.85,3.42-5.47,6.45-7.87,9.1-2.4,2.65-4.77,4.97-7.08,6.95-2.32,1.98-4.11,3.07-5.39,3.26-1.55.23-3.17-.43-4.85-2-1.69-1.57-2.65-3.17-2.9-4.82-.8-5.3,1.1-12.87,5.69-22.72-12.72,16.02-20.82,24.29-24.29,24.82-1.64.25-3.33-.36-5.04-1.83-1.71-1.47-2.75-3.39-3.11-5.77-.58-3.84,1.35-9.78,5.79-17.83,4.44-8.05,9.6-15.44,15.5-22.16,5.9-6.73,10.54-10.35,13.92-10.86,2.55-.38,5.1-.09,7.63.88,2.53.97,4.38,2.26,5.55,3.86,2.63-4.23,4.78-7.03,6.44-8.4,1.24-1.03,2.99-.64,5.22,1.18,1.92,1.58,2.37,2.72,1.36,3.44-.08.11-.21.17-.39.2-1.6.52-4.98,4.93-10.13,13.23-5.15,8.3-9.68,16.8-13.6,25.52-3.92,8.72-5.04,13.7-3.35,14.94,1.59,1.25,6.74-3.28,15.46-13.61,8.72-10.33,15.76-19.12,21.11-26.37ZM226.44,302.05c1.32,1.3,6.95-3.66,16.89-14.88,9.94-11.21,16.44-19.34,19.52-24.38-.5-.86-1.47-1.72-2.91-2.57-1.44-.85-2.84-1.18-4.21-.98-3.11.47-7.29,3.99-12.56,10.58-5.26,6.59-9.67,13.3-13.22,20.14-3.55,6.84-4.71,10.87-3.5,12.09Z"/>
      <path class="cls-1" d="M325.45,244.95c1.05-1.09,2.68-.5,4.89,1.79,1.76,1.79,2.16,2.85,1.18,3.19-.37.05-.75.28-1.16.66-.41.39-.9,1.02-1.47,1.9-.57.88-1.03,1.65-1.4,2.31-.37.67-.89,1.68-1.57,3.04-.68,1.37-1.21,2.35-1.58,2.97-.72,1.42-1.8,3.38-3.25,5.88-1.44,2.51-3.77,6.59-6.98,12.26-3.21,5.67-6.29,11.11-9.24,16.32,3.09,0,5.61.67,7.59,2.01,1.97,1.34,3.24,2.94,3.81,4.82.48,1.33.63,2.15.44,2.46-.19.31-.45.39-.8.26-.35-.14-.8-.49-1.35-1.06-2.91-2.55-7.01-3.43-12.31-2.63l-.82.12-4.22,7.36c-3.25,5.72-5.61,9.88-7.08,12.49-1.48,2.61-4.12,7.11-7.91,13.52-3.8,6.41-6.96,11.46-9.49,15.16-2.52,3.69-5.43,7.78-8.73,12.25-3.3,4.47-6.25,7.83-8.85,10.09-2.6,2.26-4.91,3.54-6.92,3.84-1.64.25-3.09-.21-4.34-1.38-1.25-1.17-2.11-2.39-2.59-3.67-.47-1.28-.79-2.43-.94-3.43-.7-4.66,2.24-12.9,8.82-24.73,6.58-11.83,14.11-21.79,22.61-29.89,8.82-8.43,17.07-13.83,24.74-16.2.3-.51,1.95-3.49,4.96-8.94,3.01-5.45,5.4-9.71,7.18-12.78-11.73,14.57-19.37,22.12-22.93,22.65-1.46.22-2.82-.56-4.06-2.33-1.25-1.77-2-3.48-2.25-5.13-.55-3.65,1.4-9.18,5.84-16.57,4.44-7.39,9.35-14.04,14.72-19.94,5.37-5.9,9.1-9.01,11.2-9.32,4.57-.69,8.35.84,11.34,4.6.81-1.43,1.78-2.74,2.91-3.94ZM286.72,313.42l5.26-8.78c-5.45,2.87-11.57,7.82-18.37,14.82-5.48,5.78-10.4,12.19-14.76,19.25-4.35,7.05-7.34,12.97-8.96,17.74-1.61,4.77-1.84,7.59-.68,8.44,1.14.76,3.29-.61,6.45-4.13,3.16-3.51,6.88-8.58,11.16-15.2,4.28-6.62,7.89-12.31,10.81-17.04,2.93-4.74,5.95-9.77,9.07-15.1ZM287.01,289.28c.84.62,5.57-3.97,14.18-13.77,8.61-9.8,14.06-16.41,16.35-19.84-.51-1.51-1.36-2.55-2.57-3.12-1.21-.56-2.48-.65-3.82-.26-2.24.62-5.59,3.83-10.04,9.64-4.45,5.81-8.2,11.6-11.25,17.39-3.05,5.78-4,9.1-2.84,9.96Z"/>
      <path class="cls-1" d="M338.85,295.76c-1.64.25-3.3-.48-4.95-2.2-1.66-1.71-2.64-3.57-2.95-5.58-.54-3.56.12-8.01,1.99-13.33,1.86-5.33,4.2-10.39,7.02-15.21,6.89-11.31,11.05-17.78,12.49-19.4.8-.87,1.52-1.35,2.16-1.45,1.92-.29,3.38.71,4.38,2.99.76,1.94.65,3.08-.33,3.41-1.19.18-3.82,3.5-7.89,9.95-4.07,6.45-7.59,13.17-10.55,20.16-2.97,6.99-3.61,11.1-1.92,12.34,1.58,1.16,5.35-1.53,11.32-8.08,5.97-6.55,12.6-14.77,19.9-24.65,1.16-1.58,1.82-1.58,1.96-.01.29,2.57-.24,5.27-1.59,8.09l-.56.92c-.78,1.05-2.27,3.05-4.49,6-2.22,2.95-3.83,5.09-4.85,6.41-1.02,1.32-2.51,3.18-4.48,5.58-1.98,2.4-3.55,4.23-4.71,5.47-1.17,1.25-2.53,2.6-4.08,4.05-1.56,1.45-2.98,2.53-4.28,3.24-1.3.71-2.49,1.15-3.59,1.31ZM365.65,228.1c-.81.22-1.49-.1-2.04-.95-.55-.85-.7-1.72-.46-2.59.71-2.72,2.72-6.41,6.04-11.07,3.31-4.65,5.83-7.16,7.56-7.51,1.26-.28,2.44-.09,3.52.59,1.08.68,1.77,1.65,2.05,2.91.23.9-2.36,4.21-7.75,9.93-5.39,5.72-8.37,8.62-8.92,8.7Z"/>
      <path class="cls-1" d="M367.35,291.46c-1.64.25-3.3-.48-4.95-2.2-1.66-1.71-2.64-3.57-2.94-5.58-.54-3.56.12-8.01,1.98-13.33,1.86-5.33,4.2-10.39,7.03-15.21,6.89-11.31,11.05-17.78,12.49-19.4.8-.87,1.52-1.35,2.16-1.45,1.92-.29,3.38.71,4.37,2.99.76,1.94.65,3.08-.33,3.41-1.19.18-3.82,3.5-7.89,9.95-4.07,6.45-7.59,13.17-10.55,20.16-2.97,6.99-3.61,11.1-1.92,12.34,1.58,1.16,5.35-1.53,11.32-8.08,5.97-6.55,12.6-14.77,19.9-24.65,1.16-1.58,1.82-1.58,1.96-.02.29,2.57-.24,5.27-1.59,8.09l-.56.92c-.78,1.05-2.27,3.05-4.49,6-2.22,2.95-3.84,5.09-4.85,6.41-1.02,1.32-2.51,3.18-4.48,5.58-1.98,2.4-3.55,4.23-4.71,5.48-1.17,1.25-2.53,2.6-4.08,4.05-1.56,1.45-2.98,2.53-4.28,3.24-1.3.71-2.49,1.15-3.59,1.31ZM394.15,223.81c-.81.22-1.49-.1-2.04-.96-.55-.85-.7-1.72-.46-2.59.71-2.72,2.72-6.41,6.04-11.07,3.31-4.65,5.83-7.16,7.56-7.51,1.26-.28,2.44-.09,3.52.59,1.08.68,1.77,1.65,2.05,2.91.23.9-2.36,4.21-7.75,9.93-5.4,5.72-8.37,8.62-8.92,8.7ZM394.15,223.81c-.81.22-1.49-.1-2.04-.96-.55-.85-.7-1.72-.46-2.59.71-2.72,2.72-6.41,6.04-11.07,3.31-4.65,5.83-7.16,7.56-7.51,1.26-.28,2.44-.09,3.52.59,1.08.68,1.77,1.65,2.05,2.91.23.9-2.36,4.21-7.75,9.93-5.4,5.72-8.37,8.62-8.92,8.7Z"/>
      <path class="cls-1" d="M529.43,135.88c6.03-.91,11.81.44,17.35,4.04,5.54,3.6,8.88,9.15,10,16.64,1.02,6.76-.75,16.6-5.29,29.52-4.54,12.92-10.94,26.59-19.18,41-8.25,14.41-17.22,28.33-26.92,41.75-9.7,13.42-19.8,24.8-30.31,34.13-10.5,9.34-19.69,14.6-27.54,15.78-5.21.79-9.91-.4-14.13-3.55-4.21-3.15-6.73-7.46-7.55-12.94-1.35-8.95.33-19.67,5.03-32.15s11.11-24.37,19.22-35.68c4.43-15.24,11.33-30.34,20.71-45.3,9.38-14.96,19.39-27.25,30.03-36.89,10.64-9.64,20.17-15.09,28.58-16.36ZM445.45,311.36c6.3-.95,13.5-4.77,21.6-11.45s16.05-14.87,23.84-24.54c7.79-9.67,15.44-20.4,22.96-32.19,7.52-11.78,14.04-23.18,19.58-34.2,5.53-11.01,9.9-21.25,13.1-30.7s4.52-16.61,3.98-21.48c-.48-5.06-2.38-8.68-5.7-10.84-3.31-2.16-7.85-2.81-13.6-1.94-10.14,1.53-21.63,9.45-34.46,23.76-12.84,14.31-23.57,30.67-32.19,49.06,8.54-8.38,15.99-13.24,22.33-14.57,3.35-.69,5.88-.33,7.59,1.1,1.71,1.43,2.7,3.01,2.96,4.74.29,1.92-.75,3.06-3.13,3.41-.55.08-1.42-.16-2.63-.72-1.77-.58-3.02-.81-3.75-.7-3.93.59-8.78,3.56-14.56,8.92s-11.56,12.11-17.33,20.27c-4.08,13.88-5.38,25.71-3.9,35.48,1.02,6.76,4.73,10.03,11.14,9.81,1.2-.09,2.01.02,2.43.33.42.31.71.97.86,1.97.37,2.47-1.73,4.04-6.29,4.73-2.65.4-5.48-.69-8.48-3.28-3-2.58-4.9-6.48-5.68-11.68-1.03-6.85-1.13-13.98-.28-21.4-10.63,18.7-15.15,33.39-13.53,44.08.73,4.84,2.12,8.2,4.18,10.09,2.05,1.89,5.05,2.53,8.98,1.94Z"/>
      <path class="cls-1" d="M594.18,226.18c3.79-1.5,7.03-2.04,9.71-1.6.97.23,1.02.59.17,1.1-.09.01-.22.08-.39.2-5.52,2.42-10.02,4.5-13.49,6.24-7.08,10.69-13.46,19.17-19.15,25.45s-10.86,9.76-15.52,10.47c-1.83.27-3.66-.43-5.5-2.11-1.84-1.69-2.94-3.72-3.3-6.09-.54-3.56,2.67-7.99,9.63-13.29,6.96-5.3,15.71-10.42,26.27-15.38,8.69-13.64,11.84-21.21,9.47-22.73-1.85-1.12-6.44,1.28-13.77,7.19-7.33,5.92-15.73,14.47-25.21,25.66-9.48,11.19-17.29,22.43-23.43,33.73-9,19.01-15.19,32.79-18.58,41.33.85-.6,2.5-2.34,4.96-5.23,1.04-1.18,1.49-1.25,1.37-.21-.31,2.29-1.76,6.01-4.34,11.16-1.32,2.44-2.32,4.27-3.02,5.5-.7,1.23-1.64,2.44-2.82,3.65-1.17,1.2-2.35,1.9-3.54,2.07-2.19.33-3.5-.87-3.91-3.61-.37-2.47.43-5.81,2.41-10.03.63-1.4,3.17-7.04,7.61-16.91,4.44-9.87,8.88-19.65,13.31-29.33,4.43-9.68,7.7-16.51,9.81-20.47,17.28-32.22,27.94-50.45,31.97-54.7,1.46-1.43,3.42-1.12,5.88.94,1.93,1.67,2.5,2.94,1.7,3.81-.07.2-.19.31-.37.34-.44.16-1.44,1.18-2.98,3.04-1.54,1.87-3.78,4.84-6.71,8.93-2.93,4.08-5.94,8.65-9.01,13.69-1.65,2.68-3.82,6.56-6.51,11.63,6.81-9.34,15.02-18.24,24.63-26.69,9.61-8.45,17.02-13.08,22.23-13.86,4.38-.66,7.16,1.63,8.32,6.87.78,3.34-1.84,9.76-7.89,19.27ZM556.7,258.31c1.5,1.27,4.27-.15,8.33-4.27,4.05-4.11,8.11-9.09,12.18-14.94-12.69,7.52-19.68,13.2-20.98,17.03-.32.98-.16,1.71.47,2.17Z"/>
      <path class="cls-1" d="M651.6,212.06c.7-.95,1.14-.82,1.32.36.34,2.85-.77,6.38-3.31,10.59l-2.33,3.15c-9.4,11.41-16.69,19.43-21.88,24.04s-9.58,7.09-13.17,7.45c-2.39.27-4.62-.61-6.7-2.63-2.08-2.02-3.27-4.36-3.58-7.03-.58-5.05,1.31-11.9,5.66-20.54,4.35-8.64,9.5-16.31,15.45-23,5.95-6.69,10.81-10.27,14.56-10.74,1.84-.18,3.62.32,5.34,1.51,1.72,1.19,2.68,2.75,2.88,4.68.42,4.05-2.99,9.63-10.23,16.75-7.24,7.12-15.24,13.25-23.99,18.4-3.31,7.78-3.84,12.63-1.59,14.53,5.03,4.29,18.89-8.22,41.57-37.51ZM632.32,211.04c4.27-4.19,5.67-6.83,4.2-7.92-1.47-1.09-4.15.51-8.04,4.78-3.89,4.28-7.68,9.64-11.38,16.08,5.87-4.43,10.94-8.75,15.21-12.94Z"/>
      <path class="cls-1" d="M695.4,202.37c-2.46.37-5.62,4.12-9.45,11.23-3.83,7.12-5.48,12.46-4.95,16.02.37,2.47,1.65,3.53,3.85,3.2,4.02-.61,9.9-5.28,17.65-14.01,1.36-1.51,2.07-1.76,2.13-.74-.05,1.5-.95,3.65-2.67,6.43-1.81,2.89-4.71,6.29-8.69,10.21-3.99,3.92-7.58,6.12-10.78,6.6-2.1.32-3.91-.06-5.43-1.14-1.52-1.08-2.46-2.85-2.83-5.32-.47-3.1.03-6.92,1.5-11.44-5.59,6.91-11.25,12.93-16.97,18.04-5.72,5.11-10.27,7.92-13.65,8.43-2.83.43-4.95-.12-6.34-1.64-1.4-1.52-2.25-3.33-2.57-5.43-.32-2.1.05-3.84,1.11-5.21,1.05-1.37,2.35-2.18,3.91-2.41,1.28-.19,2.41.36,3.4,1.66.99,1.3,1.56,2.78,1.72,4.44,2.99-.64,7.26-3.41,12.83-8.31,5.57-4.9,10.52-10.3,14.87-16.18,2.72-3.68,4.92-7.16,6.62-10.46,1.7-3.29,2.72-5.8,3.07-7.54.34-1.73.3-2.8-.13-3.2-.42-.31-1-.41-1.73-.3-2.47.37-6.71,2.88-12.74,7.53-7.1,5.56-11.41,10.74-12.93,15.54-.77,2.36-2.16,3.69-4.16,3.99-1.01.15-1.93-.27-2.78-1.26-.85-.99-1.37-2.13-1.56-3.41-.29-1.92,1.27-4.72,4.69-8.41,3.41-3.69,7.58-7.45,12.52-11.28,9.03-7.06,15.18-10.84,18.47-11.33,2.01-.3,3.77.39,5.29,2.08,1.52,1.69,2.42,3.54,2.73,5.54.08.55.1.97.05,1.25.89-.88,1.71-1.38,2.44-1.49,1.64-.25,3.4.26,5.27,1.52,1.87,1.26,2.91,2.57,3.12,3.94.08.55,0,.98-.22,1.3-.45.72-1.23,1.17-2.32,1.33-.46.07-1.17.11-2.15.11-.98,0-1.7.05-2.16.12Z"/>
      <path class="cls-1" d="M764.35,183.86c1.02-.71,1.57-.75,1.67-.11.18,1.19-1.19,2.98-4.09,5.38-.09.01-.18.08-.25.18-5.52,4.29-11.77,6.86-18.73,7.73-1.01.15-2.45.18-4.33.09-2.73,7.32-8.22,17.19-16.49,29.6-8.27,12.41-14.43,18.78-18.49,19.11-1.29.1-2.72-.38-4.28-1.46-1.56-1.07-2.46-2.67-2.68-4.78-.23-2.11,2.18-8.31,7.21-18.6,5.04-10.29,10.74-20.32,17.11-30.11,6.37-9.79,10.88-14.88,13.53-15.28,2.1-.32,3.8.46,5.11,2.31.95,1.35.83,2.12-.35,2.3-1.19.18-2.56.99-4.12,2.44,2.61,1.2,4.02,4.07,4.24,8.61,1.7.12,3.1.09,4.2-.07,2.84-.33,6.53-1.31,11.05-2.93,4.52-1.61,7.75-3.08,9.7-4.4ZM706.35,234.07c1.05.78,3.71-1.7,7.99-7.44,4.27-5.74,8.3-12.02,12.09-18.85,3.78-6.83,5.53-11.2,5.24-13.12l-.12-.82c-.97-.88-1.87-1.87-2.69-2.96-5.05,8.05-10.35,17.04-15.9,26.99-5.56,9.94-7.75,15.34-6.59,16.2Z"/>
      <path class="cls-1" d="M832.83,98.01c1.55-.23,2.95.38,4.2,1.82,1.25,1.45,2.01,3.08,2.28,4.91.56,3.75-2.92,10.67-10.46,20.78-7.54,10.1-15.93,20.15-25.16,30.13-5.55,5.97-15.93,16.41-31.16,31.32,2.69-.78,4.81-1.28,6.36-1.52,3.29-.5,5.8-.22,7.55.82.81.44.74.92-.21,1.43-.43.25-2.36.92-5.79,2-3.43,1.08-6.5,2.29-9.19,3.63-.09,4.97-1.28,10.87-3.57,17.7-2.29,6.84-5.33,12.97-9.14,18.4s-7.49,8.42-11.05,8.95c-4.11.62-6.51-1.35-7.2-5.92-.08-.55-.09-1.2-.02-1.96.07-.76.31-1.68.71-2.77.4-1.09.78-2.12,1.14-3.12.37-.99.96-2.32,1.78-3.98.82-1.67,1.54-3.13,2.14-4.39.6-1.26,1.53-3.01,2.78-5.25,1.25-2.24,2.29-4.15,3.13-5.73.83-1.57,2.04-3.81,3.61-6.71,1.57-2.9,2.91-5.32,4.02-7.26,3.44-6.31,8.32-14.36,14.65-24.14,6.32-9.78,13.17-19.83,20.54-30.14,7.37-10.31,14.61-19.25,21.74-26.82,7.13-7.56,12.56-11.63,16.31-12.2ZM748.33,229.99c1.67.59,3.84-1.14,6.5-5.18,2.66-4.04,4.96-9.04,6.92-14.99,1.95-5.95,2.76-10.99,2.41-15.15-2.21,3.32-5.65,9.96-10.31,19.91-4.67,9.95-6.51,15.09-5.53,15.4ZM777.77,173.43c7.74-7.52,18.28-19.12,31.6-34.82,13.33-15.69,19.17-24.02,17.53-24.99-4.23-2.63-20.61,17.31-49.14,59.81Z"/>
      <path class="cls-1" d="M788.36,233.49c-1.56.23-3.1-.44-4.65-2.03-1.55-1.59-2.44-3.16-2.67-4.71-.5-3.29.29-8.01,2.35-14.16,2.06-6.15,4.98-12.22,8.75-18.2,4.6-7.32,9.2-13.51,13.81-18.55,4.61-5.04,8.82-7.98,12.61-8.84,2.44-.55,4.6-.32,6.48.7,1.88,1.03,3,2.68,3.34,4.96.4,2.65-.28,5.58-2.04,8.78-1.76,3.21-3.65,4.96-5.66,5.26-2.74.41-4.35-.04-4.83-1.37-.17-.53.03-1.03.62-1.49,1.06-1,2.08-2.74,3.07-5.23.98-2.48.97-3.93-.02-4.34-2.63-1.29-9.21,6.15-19.76,22.31-3.48,5.38-6.33,10.72-8.52,16-2.19,5.28-3.13,8.98-2.82,11.08.18,1.19.68,1.72,1.5,1.59,1.55-.23,4.35-1.85,8.38-4.83,4.03-2.99,7.73-6,11.11-9.03,4.45-3.94,7.22-6.32,8.31-7.14.93-.6,1.1-.4.51.62-.14.3-.52.92-1.13,1.85-3.64,5.59-8.45,11.32-14.44,17.17-5.98,5.85-10.76,9.05-14.32,9.58Z"/>
      <path class="cls-1" d="M853.47,159.64c1.46-.22,2.8.61,4.01,2.48.65,1.21.66,1.91.04,2.1-1.1.17-3.6,3.09-7.51,8.77-3.91,5.68-6.96,10.84-9.16,15.46,2.36.77,3.37,2.97,3.03,6.62-.34,3.65-1.78,7.86-4.33,12.63-5.02,9.44-9.55,14.47-13.56,15.07-2.74.41-4.33-.84-4.77-3.76-.55-3.65,2.22-11.27,8.33-22.83-1.77-1.79-2.13-3.6-1.1-5.44.89-1.54,2.72-2.42,5.49-2.65.13-.39.43-.91.89-1.54.47-.63.76-1.14.89-1.54,9.92-16.63,15.84-25.09,17.76-25.38ZM828.94,211.68c.99.41,2.81-1.66,5.44-6.21,2.63-4.55,3.37-7.21,2.23-7.97-.52-.39-1.47.57-2.85,2.88-1.38,2.31-2.6,4.74-3.67,7.28-1.07,2.54-1.45,3.88-1.14,4.02Z"/>
      <path class="cls-1" d="M905.68,190.02c1.48-.69,2.59-1.09,3.32-1.2.73-.11,1.14-.05,1.22.17.08.22-.02.63-.3,1.24-.28.6-.6,1.12-.96,1.54-.35.43-.77.91-1.25,1.45-1.59,1.83-6.17,5.23-13.74,10.2-7.57,4.97-13.54,7.78-17.92,8.45-2.93.44-5.49-.17-7.71-1.85-2.21-1.67-3.9-3.87-5.06-6.59-2.62,4.32-4.37,7.57-5.26,9.76-1.1,2.59-1.5,4.9-1.2,6.91.26,1.73-.48,2.73-2.22,2.99-1.27.19-2.46-.24-3.55-1.28-1.09-1.05-1.77-2.44-2.03-4.18-.3-2.01,3.77-10.52,12.2-25.52,8.43-15,15.43-27.03,20.97-36.09.63-1.4,2.11-1.53,4.43-.39,2.14,1.17,2.78,2.34,1.93,3.49-.78,1.05-1.66,2.33-2.65,3.83-.99,1.51-2.49,3.95-4.5,7.33-2.01,3.39-3.47,5.8-4.37,7.24,2.81-3.04,6.93-6.86,12.36-11.46,5.43-4.6,8.87-7.01,10.33-7.23,1.55-.23,2.81.7,3.78,2.79.77,2.03.54,3.28-.7,3.75-3.47.52-9.58,5.28-18.31,14.25-4.37,4.49-7.83,8.82-10.38,12.98-2.55,4.17-3.67,7.26-3.37,9.27.27,1.83,1.64,2.55,4.11,2.18,3.38-.51,6.95-1.61,10.71-3.29,3.76-1.69,7.73-3.73,11.9-6.14,4.17-2.4,6.9-3.93,8.21-4.6Z"/>
      <path class="cls-1" d="M964.8,153.65c1.02-.71,1.57-.75,1.67-.11.18,1.19-1.18,2.98-4.09,5.38-.09.01-.18.08-.25.18-5.52,4.29-11.76,6.86-18.73,7.73-1.01.15-2.45.18-4.33.09-2.73,7.33-8.22,17.19-16.49,29.6-8.27,12.41-14.43,18.78-18.49,19.11-1.29.1-2.72-.38-4.28-1.46-1.56-1.07-2.46-2.67-2.68-4.78-.23-2.11,2.18-8.31,7.21-18.6,5.04-10.29,10.74-20.32,17.11-30.11,6.37-9.79,10.88-14.88,13.53-15.28,2.1-.32,3.8.46,5.11,2.31.95,1.35.83,2.12-.35,2.3-1.19.18-2.56.99-4.12,2.44,2.61,1.2,4.02,4.07,4.24,8.61,1.7.12,3.1.09,4.19-.07,2.85-.33,6.53-1.31,11.05-2.93,4.52-1.61,7.76-3.08,9.71-4.4ZM906.79,203.87c1.05.78,3.71-1.7,7.98-7.44,4.27-5.74,8.3-12.02,12.09-18.85,3.78-6.83,5.53-11.2,5.24-13.12l-.12-.82c-.97-.88-1.87-1.87-2.69-2.96-5.05,8.05-10.35,17.04-15.9,26.99-5.56,9.95-7.75,15.35-6.59,16.2Z"/>
      <path class="cls-1" d="M952.93,203.22c-1.64.25-3.29-.48-4.95-2.2-1.66-1.71-2.64-3.57-2.94-5.58-.54-3.56.12-8.01,1.98-13.33,1.86-5.33,4.2-10.39,7.03-15.21,6.89-11.31,11.05-17.78,12.49-19.4.8-.87,1.52-1.35,2.16-1.45,1.92-.29,3.38.71,4.37,2.98.76,1.94.65,3.08-.33,3.41-1.19.18-3.82,3.5-7.89,9.95-4.07,6.45-7.59,13.17-10.55,20.16-2.97,6.99-3.61,11.1-1.92,12.34,1.58,1.16,5.35-1.53,11.32-8.08,5.97-6.55,12.6-14.77,19.9-24.65,1.16-1.58,1.82-1.58,1.96-.01.29,2.57-.24,5.27-1.59,8.08l-.56.93c-.78,1.05-2.27,3.05-4.49,6-2.22,2.95-3.83,5.09-4.85,6.41-1.02,1.32-2.51,3.18-4.48,5.58-1.97,2.4-3.55,4.23-4.71,5.47-1.17,1.25-2.53,2.6-4.08,4.05-1.56,1.45-2.98,2.53-4.28,3.24s-2.49,1.15-3.59,1.31ZM979.73,135.57c-.81.22-1.49-.1-2.04-.96-.55-.85-.7-1.71-.46-2.59.71-2.72,2.72-6.41,6.04-11.07,3.31-4.65,5.83-7.16,7.56-7.51,1.26-.28,2.44-.09,3.52.59s1.77,1.65,2.05,2.91c.23.9-2.36,4.21-7.75,9.93-5.4,5.72-8.37,8.62-8.92,8.7Z"/>
    </g>
    <path class="cls-1" d="M963.47,130.21c-.81.22-1.49-.1-2.04-.95-.55-.85-.7-1.72-.46-2.59.71-2.72,2.73-6.41,6.04-11.07,3.32-4.65,5.83-7.16,7.56-7.51,1.27-.28,2.44-.09,3.52.59,1.09.68,1.77,1.65,2.05,2.91.23.9-2.36,4.21-7.75,9.93-5.4,5.72-8.37,8.62-8.92,8.7Z"/>
  </g>
</svg>